<svg xmlns="http://www.w3.org/2000/svg" width="50" height="50" viewBox="0 0 50 50">
    <g>
        <path d="M49.166 29.167H46.61L45 5.777c-.03-.438-.395-.777-.834-.777h-5c-.439 0-.803.34-.833.777l-1.61 23.39H35v-5c0-.46-.373-.834-.833-.834-.19 0-.374.065-.521.183l-6.98 5.583v-4.932c0-.46-.372-.834-.833-.834-.19 0-.373.065-.52.183l-6.98 5.583v-4.932c0-.46-.372-.834-.833-.834-.19 0-.373.065-.52.183L10 29.1v-4.932c0-.46-.373-.833-.833-.833-.152 0-.3.04-.43.119l-8.333 5c-.25.15-.404.421-.404.714v20c0 .46.373.833.833.833h48.333c.46 0 .834-.373.834-.833V30c0-.46-.374-.833-.834-.833zm-9.222-22.5h3.444l1.552 22.5h-6.548l1.552-22.5zM28.333 48.333v-10h5v10h-5zm20 0H35V37.5c0-.46-.374-.833-.834-.833H27.5c-.46 0-.834.373-.834.833v10.833h-25V29.64l6.667-4v5.194c0 .46.373.834.833.834.19 0 .373-.064.521-.183l6.98-5.583v4.932c0 .46.372.834.833.834.189 0 .373-.064.52-.182L25 25.9v4.933c0 .46.372.833.833.833.189 0 .373-.064.52-.182l6.98-5.584v4.1c0 .46.373.833.833.833h14.167v17.5zM28.327 1.667c.303.163.577.374.81.627.468.57 1.133.94 1.863 1.04.768-.098 1.47-.485 1.963-1.084.211-.22.447-.417.704-.583.171.008.62.428.862.654.45.557 1.095.919 1.804 1.013.818-.104 1.566-.514 2.094-1.149.204-.191.513-.482.573-.518.447 0 .55.148.825.545.361.684 1.068 1.114 1.842 1.122.46 0 .833-.373.833-.833 0-.46-.374-.834-.833-.834-.167 0-.2-.011-.47-.402C40.754.47 39.909-.016 39 0c-.674.094-1.288.44-1.715.97-.277.261-.74.697-.917.701-.258-.156-.494-.347-.702-.565-.5-.61-1.216-1.006-2-1.106-.722.099-1.38.467-1.842 1.03-.234.251-.504.466-.801.637-.278-.16-.53-.358-.75-.592C29.786.484 29.093.1 28.333 0c-.46-.001-.835.37-.836.831-.002.46.37.835.83.836z"/>
        <path d="M9.167 38.333H5.833c-.46 0-.833.374-.833.834v5c0 .46.373.833.833.833h3.334c.46 0 .833-.373.833-.833v-5c0-.46-.373-.834-.833-.834zm-.834 5H6.667V40h1.666v3.333zM15.833 38.333H12.5c-.46 0-.833.374-.833.834v5c0 .46.372.833.833.833h3.333c.46 0 .834-.373.834-.833v-5c0-.46-.374-.834-.834-.834zm-.833 5h-1.667V40H15v3.333zM22.5 38.333h-3.333c-.46 0-.834.374-.834.834v5c0 .46.373.833.834.833H22.5c.46 0 .833-.373.833-.833v-5c0-.46-.373-.834-.833-.834zm-.834 5H20V40h1.666v3.333z"/>
    </g>
</svg>
