<?xml version="1.0" encoding="UTF-8"?>
<svg width="67px" height="67px" viewBox="0 0 67 67" version="1.1" xmlns="http://www.w3.org/2000/svg" xmlns:xlink="http://www.w3.org/1999/xlink">
    <!-- Generator: Sketch 63.1 (92452) - https://sketch.com -->
    <title>inventory</title>
    <desc>Created with Sketch.</desc>
    <g id="Page-1" stroke="none" stroke-width="1" fill="none" fill-rule="evenodd">
        <g id="pg" transform="translate(-1666.000000, -701.000000)" fill="#000000" fill-rule="nonzero">
            <g id="inventory" transform="translate(1666.000000, 701.000000)">
                <path d="M59.7886497,0 L59.7886497,9.30919765 L52.8395303,9.30919765 L52.8395303,2.75342466 L43.0058708,2.75342466 L43.0058708,9.30919765 L38.4168297,9.30919765 L38.4168297,2.75342466 L28.5831703,2.75342466 L28.5831703,9.30919765 L23.9941292,9.30919765 L23.9941292,2.75342466 L14.1604697,2.75342466 L14.1604697,9.30919765 L7.21135029,9.30919765 L7.21135029,0 L0,0 L0,67 L7.21135029,67 L7.21135029,65.0332681 L27.3375734,65.0332681 L27.3375734,63.0665362 L7.21135029,63.0665362 L7.21135029,61.0998043 L59.7886497,61.0998043 L59.7886497,63.0665362 L29.3043053,63.0665362 L29.3043053,65.0332681 L59.7886497,65.0332681 L59.7886497,67 L67,67 L67,0 L59.7886497,0 Z M5.2446184,65.0332681 L1.9667319,65.0332681 L1.9667319,60.7064579 L5.2446184,60.7064579 L5.2446184,65.0332681 Z M5.2446184,58.739726 L1.9667319,58.739726 L1.9667319,54.8791624 L5.2446184,54.8791624 L5.2446184,58.739726 Z M5.2446184,52.9124305 L1.9667319,52.9124305 L1.9667319,49.0518669 L5.2446184,49.0518669 L5.2446184,52.9124305 Z M5.2446184,47.0850039 L1.9667319,47.0850039 L1.9667319,43.2243092 L5.2446184,43.2243092 L5.2446184,47.0850039 Z M5.2446184,41.2577084 L1.9667319,41.2577084 L1.9667319,37.3971448 L5.2446184,37.3971448 L5.2446184,41.2577084 Z M5.2446184,35.4302818 L1.9667319,35.4302818 L1.9667319,31.5697182 L5.2446184,31.5697182 L5.2446184,35.4302818 Z M5.2446184,29.6029863 L1.9667319,29.6029863 L1.9667319,25.7424227 L5.2446184,25.7424227 L5.2446184,29.6029863 Z M5.2446184,23.7755597 L1.9667319,23.7755597 L1.9667319,19.914865 L5.2446184,19.914865 L5.2446184,23.7755597 Z M5.2446184,17.9482642 L1.9667319,17.9482642 L1.9667319,14.0877006 L5.2446184,14.0877006 L5.2446184,17.9482642 Z M5.2446184,12.1208376 L1.9667319,12.1208376 L1.9667319,8.26027397 L5.2446184,8.26027397 L5.2446184,12.1208376 Z M5.2446184,6.29354207 L1.9667319,6.29354207 L1.9667319,1.9667319 L5.2446184,1.9667319 L5.2446184,6.29354207 Z M44.9726027,4.72015656 L50.8727984,4.72015656 L50.8727984,9.30919765 L44.9726027,9.30919765 L44.9726027,4.72015656 Z M30.5499022,4.72015656 L36.4500978,4.72015656 L36.4500978,9.30919765 L30.5499022,9.30919765 L30.5499022,4.72015656 Z M16.1272016,4.72015656 L22.0273973,4.72015656 L22.0273973,9.30919765 L16.1272016,9.30919765 L16.1272016,4.72015656 Z M54.1506849,59.1330724 L35.1389432,59.1330724 L35.1389432,50.6105675 L41.0391389,50.6105675 L41.0391389,55.8551859 L48.2504892,55.8551859 L48.2504892,50.6105675 L54.1506849,50.6105675 L54.1506849,59.1330724 Z M43.0058708,53.888454 L43.0058708,50.6105675 L46.2837573,50.6105675 L46.2837573,53.888454 L43.0058708,53.888454 Z M59.7886497,38.1545988 L16.1927593,38.1545988 L16.1927593,40.1213307 L59.7886497,40.1213307 L59.7886497,59.1330724 L56.1174168,59.1330724 L56.1174168,48.6438356 L48.2504892,48.6438356 L41.0391389,48.6438356 L33.1722114,48.6438356 L33.1722114,59.1330724 L28.5831703,59.1330724 L28.5831703,51.5939335 L26.6164384,51.5939335 L26.6164384,55.1996086 L19.2084149,55.1996086 L19.2084149,57.1663405 L26.6164384,57.1663405 L26.6164384,59.1330724 L12.8493151,59.1330724 L12.8493151,45.3659491 L16.1272016,45.3659491 L16.1272016,50.6105675 L23.3385519,50.6105675 L23.3385519,45.3659491 L26.6164384,45.3659491 L26.6164384,49.6272016 L28.5831703,49.6272016 L28.5831703,43.3992172 L23.3385519,43.3992172 L16.1272016,43.3992172 L10.8825832,43.3992172 L10.8825832,59.1330724 L7.21135029,59.1330724 L7.21135029,40.1213307 L14.2260274,40.1213307 L14.2260274,38.1545988 L7.21135029,38.1545988 L7.21135029,36.1878669 L59.7886497,36.1878669 L59.7886497,38.1545988 Z M18.0939335,48.6438356 L18.0939335,45.3659491 L21.37182,45.3659491 L21.37182,48.6438356 L18.0939335,48.6438356 Z M25.9608611,28.3209393 L25.9608611,34.221135 L14.816047,34.221135 L14.816047,28.3209393 L25.9608611,28.3209393 Z M14.816047,26.3542074 L14.816047,20.4540117 L25.9608611,20.4540117 L25.9608611,26.3542074 L14.816047,26.3542074 Z M52.183953,32.2544031 L52.183953,34.221135 L41.0391389,34.221135 L41.0391389,28.3209393 L52.183953,28.3209393 L52.183953,30.2876712 L47.9227006,30.2876712 L47.9227006,32.2544031 L52.183953,32.2544031 Z M59.7886497,13.2426614 L52.7739726,13.2426614 L52.7739726,15.2093933 L59.7886497,15.2093933 L59.7886497,34.221135 L54.1506849,34.221135 L54.1506849,26.3542074 L41.0391389,26.3542074 L39.072407,26.3542074 L35.4667319,26.3542074 L35.4667319,28.3209393 L39.072407,28.3209393 L39.072407,34.221135 L27.927593,34.221135 L27.927593,28.3209393 L33.5,28.3209393 L33.5,26.3542074 L27.927593,26.3542074 L27.927593,18.4872798 L12.8493151,18.4872798 L12.8493151,26.3542074 L12.8493151,28.3209393 L12.8493151,34.221135 L7.21135029,34.221135 L7.21135029,15.2093933 L50.8072407,15.2093933 L50.8072407,13.2426614 L7.21135029,13.2426614 L7.21135029,11.2759295 L59.7886497,11.2759295 L59.7886497,13.2426614 Z M65.0332681,65.0332681 L61.7553816,65.0332681 L61.7553816,60.7064579 L65.0332681,60.7064579 L65.0332681,65.0332681 Z M65.0332681,58.739726 L61.7553816,58.739726 L61.7553816,54.8791624 L65.0332681,54.8791624 L65.0332681,58.739726 Z M65.0332681,52.9124305 L61.7553816,52.9124305 L61.7553816,49.0518669 L65.0332681,49.0518669 L65.0332681,52.9124305 Z M65.0332681,47.0850039 L61.7553816,47.0850039 L61.7553816,43.2243092 L65.0332681,43.2243092 L65.0332681,47.0850039 Z M65.0332681,41.2577084 L61.7553816,41.2577084 L61.7553816,37.3971448 L65.0332681,37.3971448 L65.0332681,41.2577084 Z M65.0332681,35.4302818 L61.7553816,35.4302818 L61.7553816,31.5697182 L65.0332681,31.5697182 L65.0332681,35.4302818 Z M65.0332681,29.6029863 L61.7553816,29.6029863 L61.7553816,25.7424227 L65.0332681,25.7424227 L65.0332681,29.6029863 Z M65.0332681,23.7755597 L61.7553816,23.7755597 L61.7553816,19.914865 L65.0332681,19.914865 L65.0332681,23.7755597 Z M65.0332681,17.9482642 L61.7553816,17.9482642 L61.7553816,14.0877006 L65.0332681,14.0877006 L65.0332681,17.9482642 Z M65.0332681,12.1208376 L61.7553816,12.1208376 L61.7553816,8.26027397 L65.0332681,8.26027397 L65.0332681,12.1208376 Z M65.0332681,6.29354207 L61.7553816,6.29354207 L61.7553816,1.9667319 L65.0332681,1.9667319 L65.0332681,6.29354207 Z" id="Shape"></path>
                <polygon id="Path" points="15 55 17 55 17 57 15 57"></polygon>
                <polygon id="Path" points="17 22 19 22 19 24 17 24"></polygon>
                <polygon id="Path" points="21 22 23 22 23 24 21 24"></polygon>
                <polygon id="Path" points="44 30 46 30 46 32 44 32"></polygon>
            </g>
        </g>
    </g>
</svg>