<svg xmlns="http://www.w3.org/2000/svg" width="22" height="34" viewBox="0 0 22 34">
    <g fill="#3E4D73">
        <path d="M6.364 13.847c1.064.491 2.232-.24 2.608-1.632.09-.34-.045-.711-.304-.83L5.75 10.036c-.259-.12-.543.058-.635.398-.374 1.392.184 2.919 1.248 3.412zm1.385-1.506c-.286.338-.69.444-1.054.277-.364-.168-.627-.583-.688-1.082l1.742.805zM14.074 13.738c.746.467 1.633.3 2.248-.423.615-.723.837-1.86.561-2.88-.091-.34-.375-.517-.634-.398l-2.917 1.347c-.259.12-.395.492-.304.831.18.67.556 1.219 1.046 1.523zm1.919-2.201c-.06.498-.324.914-.688 1.082-.363.168-.768.061-1.054-.278l1.742-.804zM12.908 17c-.02.034-.499.844-1.908.844-1.409 0-1.888-.81-1.908-.844l.004.007L8 17.524c.032.06.808 1.476 3 1.476s2.968-1.415 3-1.475l-1.096-.517.004-.008z"/>
        <path d="M17.54 19.556c1.012-1.221 1.564-2.746 1.565-4.318v-.505c1.28 0 2.316-1.014 2.316-2.266S20.384 10.2 19.105 10.2V9.067h.58c.319 0 .578-.254.578-.567V6.233c0-.313-.259-.566-.579-.566h-.026C19.354 2.459 16.607.004 13.316 0H8.684C5.393.004 2.646 2.459 2.342 5.667h-.026c-.32 0-.58.253-.58.566V8.5c0 .313.26.567.58.567h.579V10.2c-1.28 0-2.316 1.015-2.316 2.267s1.037 2.266 2.316 2.266v.505c0 1.572.553 3.097 1.564 4.318C1.81 20.377.007 22.78 0 25.5v5.667C.002 32.73 1.297 33.998 2.895 34h16.21c1.598-.002 2.893-1.27 2.895-2.833V25.5c-.007-2.72-1.81-5.123-4.46-5.944zm-8.277 2.515c.213.019.427.029.643.029h2.188c.216 0 .43-.01.643-.03v.03c0 .939-.778 1.7-1.737 1.7-.96 0-1.737-.761-1.737-1.7v-.03zm2.831-1.104H9.906c-2.984 0-5.49-2.197-5.816-5.1h13.82c-.326 2.903-2.832 5.1-5.816 5.1zm8.17-8.5c-.002.625-.52 1.132-1.159 1.133v-2.267c.64.001 1.157.508 1.158 1.134zm-1.159-4.534H2.895V6.8h16.21v1.133zm-5.264-5.158c.674.83 1.085 1.836 1.183 2.892h-3.445V1.28c.894.257 1.685.779 2.262 1.494zm-3.42-1.494v4.386H6.976c.097-1.056.508-2.062 1.183-2.892.577-.715 1.368-1.237 2.262-1.494zm8.072 4.386h-2.306c-.152-1.855-1.043-3.48-2.367-4.51 2.449.237 4.396 2.116 4.673 4.51zM8.18 1.157c-1.324 1.03-2.215 2.655-2.367 4.51H3.507c.277-2.394 2.224-4.273 4.673-4.51zm9.767 7.91v5.666H4.053V9.067h13.894zm-16.21 3.4c0-.626.519-1.133 1.158-1.134V13.6c-.64 0-1.157-.508-1.158-1.133zm6.947 20.4v-2.834c.154 0 .301-.06.41-.166l.903-.884c.055-.053.128-.083.205-.083h1.377v.567c0 .313.26.566.579.566h1.737v2.834h-5.21zm12.158-1.7c-.001.938-.778 1.699-1.737 1.7h-4.052v-2.834h2.894c.32 0 .58-.253.58-.566V25.5h-1.159v3.4h-4.631c0-.626-.519-1.133-1.158-1.133h-1.377c-.384-.001-.753.148-1.024.415l-.734.718H4.632v-3.4H3.474v3.967c0 .313.259.566.579.566h3.473v2.834H2.895c-.959-.001-1.736-.762-1.737-1.7V25.5c.005-2.447 1.783-4.547 4.238-5.007.789.648 1.714 1.118 2.71 1.377v.23c0 1.565 1.295 2.833 2.894 2.833 1.599 0 2.895-1.268 2.895-2.833v-.23c.995-.259 1.92-.729 2.709-1.377 2.455.46 4.233 2.56 4.238 5.007v5.667z"/>
    </g>
</svg>
