<svg xmlns="http://www.w3.org/2000/svg" width="24" height="27" viewBox="0 0 24 27">
    <g fill="none">
        <path d="M9.348 21H3.652c-.36 0-.652-.295-.652-.659V15.66c0-.364.292-.659.652-.659h5.696c.36 0 .652.295.652.659v4.682c0 .364-.292.659-.652.659zM13.348 9H7.652C7.292 9 7 8.705 7 8.341V3.658C7 3.295 7.292 3 7.652 3h5.696c.36 0 .652.295.652.658v4.683c0 .364-.292.659-.652.659zM20.348 9h-5.696c-.36 0-.652-.295-.652-.659V3.658c0-.363.292-.658.652-.658h5.696c.36 0 .652.295.652.658v4.683c0 .364-.292.659-.652.659zM24 15.389L24 26 21 26 21 0 24 0 24 10.611M0 0L3 0 3 26 0 26z"/>
        <path fill="#000" d="M23.5 14c-.21 0-.4-.135-.471-.332-.072-.2-.006-.429.16-.56.162-.13.39-.143.568-.038.179.107.275.323.233.527-.046.231-.254.403-.49.403z"/>
        <path fill="#C0C5D2" d="M23.48 11.643c.287 0 .52-.236.52-.527V.527c0-.29-.233-.527-.52-.527h-2.732c-.287 0-.52.236-.52.527v2.497c-.044-.005-.09-.008-.136-.008h-5.726c-.243 0-.469.075-.656.203-.188-.128-.413-.203-.656-.203H7.327c-.648 0-1.175.535-1.175 1.193v4.736c0 .047.003.093.008.138H3.77V.527c0-.29-.232-.527-.52-.527H.52C.233 0 0 .236 0 .527v25.946c0 .29.233.527.52.527h2.732c.287 0 .52-.236.52-.527v-2.435h16.457v2.435c0 .29.232.527.52.527h2.731c.287 0 .52-.236.52-.527v-10.59c0-.29-.233-.526-.52-.526-.286 0-.52.236-.52.527v10.061h-1.692V1.055h1.693v10.061c0 .291.233.527.52.527zM3.771 20.388v-4.736c0-.076.061-.138.137-.138h1.135v1.16c0 .568.456 1.031 1.016 1.031h1.424c.56 0 1.016-.463 1.016-1.031v-1.16h1.135c.075 0 .137.062.137.138v4.736c0 .076-.062.138-.137.138H3.908c-.076 0-.137-.062-.137-.138zm2.31-4.874H7.46v1.136H6.082v-1.136zm3.553-1.055H3.908c-.047 0-.092.003-.137.008v-1.872H20.23v7.931h-9.427c.005-.045.008-.091.008-.138v-4.736c0-.658-.528-1.193-1.176-1.193zm8.284-10.388v1.136H16.54V4.071h1.378zm-3.552 0H15.5v1.16c0 .568.456 1.031 1.016 1.031h1.424c.56 0 1.016-.463 1.016-1.031V4.07h1.135c.076 0 .137.062.137.138v4.736c0 .076-.061.138-.137.138h-5.726c-.075 0-.137-.062-.137-.138V4.209c0-.076.062-.138.137-.138zm-3.486 0v1.136H9.502V4.071h1.378zM7.19 8.945V4.209c0-.076.061-.138.136-.138h1.136v1.16c0 .568.456 1.031 1.016 1.031h1.424c.56 0 1.016-.463 1.016-1.031V4.07h1.135c.075 0 .136.062.136.138v4.736c0 .076-.06.138-.136.138H7.327c-.075 0-.136-.062-.136-.138zm13.038 1.193v1.402H3.77v-1.402H20.23zM2.732 25.945H1.04V1.055h1.693v24.89zm1.04-2.962V21.58h16.457v1.402H3.77z"/>
    </g>
</svg>
