<svg xmlns="http://www.w3.org/2000/svg" width="50" height="52" viewBox="0 0 50 52">
    <g>
        <path d="M49.534 16.642L25.398.14c-.274-.187-.633-.187-.907 0L.354 16.642c-.221.151-.354.403-.354.673v33.87c0 .45.362.815.808.815h48.273c.446 0 .808-.364.808-.814v-33.87c0-.27-.133-.523-.355-.674zm-30.57 33.73h-8.728v-8.794h1.832v4.397c0 .45.362.814.808.814h3.448c.447 0 .809-.364.809-.814v-4.397h1.831v8.794zM8.512 20.844v-1.846h32.865v1.846H8.512zm5.172 24.317v-3.583h1.832v3.583h-1.832zm5.28-5.211h-8.728v-8.793h1.832v4.396c0 .45.362.815.808.815h3.448c.447 0 .808-.365.808-.815v-4.396h1.832v8.793zm-5.28-5.21v-3.583h1.832v3.582h-1.832zm15.624 15.632h-8.727v-8.794h1.831v4.397c0 .45.362.814.808.814h3.449c.446 0 .808-.364.808-.814v-4.397h1.831v8.794zm-5.28-5.211v-3.583h1.832v3.583H24.03zm24.245 5.21h-7.004V32.949c0-.45-.362-.814-.808-.814-.447 0-.808.364-.808.814v17.424h-8.728v-9.608c0-.45-.362-.814-.808-.814H20.58v-9.608c0-.45-.362-.814-.809-.814h-9.536v-7.056h29.417v7.002c0 .45.361.814.808.814.446 0 .808-.364.808-.814v-7.002h.916c.446 0 .808-.365.808-.814v-3.474c0-.45-.362-.814-.808-.814H7.705c-.447 0-.809.364-.809.814v3.474c0 .45.362.814.808.814h.916v27.9H1.616V17.747L24.944 1.798l23.329 15.949v32.625z"/>
        <path d="M28.393 6.948h-6.897c-.446 0-.808.364-.808.814 0 .45.362.814.808.814h6.897c.446 0 .808-.364.808-.814 0-.45-.362-.814-.808-.814zM28.393 10.422h-6.897c-.446 0-.808.364-.808.814 0 .45.362.814.808.814h6.897c.446 0 .808-.364.808-.814 0-.45-.362-.814-.808-.814zM28.393 13.896h-6.897c-.446 0-.808.364-.808.814 0 .45.362.814.808.814h6.897c.446 0 .808-.364.808-.814 0-.45-.362-.814-.808-.814zM16.324 37.345h-3.448c-.446 0-.808.364-.808.814 0 .45.362.814.808.814h3.448c.447 0 .809-.364.809-.814 0-.45-.362-.814-.809-.814zM16.324 47.766h-3.448c-.446 0-.808.365-.808.814 0 .45.362.815.808.815h3.448c.447 0 .809-.365.809-.815 0-.45-.362-.814-.809-.814zM26.668 47.766H23.22c-.446 0-.808.365-.808.814 0 .45.362.815.808.815h3.448c.447 0 .809-.365.809-.815 0-.45-.362-.814-.809-.814z"/>
    </g>
</svg>
