<svg xmlns="http://www.w3.org/2000/svg" width="29" height="30" viewBox="0 0 29 30">
    <g fill="#FFF">
        <path d="M2.5 0h-2C.224 0 0 .217 0 .483v28.034c0 .266.224.483.5.483h2c.276 0 .5-.217.5-.483V.483C3 .217 2.776 0 2.5 0zM2 28.033H1V.967h1v27.066zM28.5 0h-2c-.276 0-.5.217-.5.483v28.034c0 .266.224.483.5.483h2c.276 0 .5-.217.5-.483V.483C29 .217 28.776 0 28.5 0zM28 28.033h-1V.967h1v27.066z" transform="translate(0 .25)"/>
        <path d="M26.52 24H2.48c-.265 0-.48.224-.48.5v2c0 .276.215.5.48.5h24.04c.265 0 .48-.224.48-.5v-2c0-.276-.215-.5-.48-.5zm-.482 2H2.962v-1h23.076v1zM26.52 2H2.48c-.265 0-.48.224-.48.5v2c0 .276.215.5.48.5h24.04c.265 0 .48-.224.48-.5v-2c0-.276-.215-.5-.48-.5zm-.482 2H2.962V3h23.076v1zM26.52 13H2.48c-.265 0-.48.224-.48.5v2c0 .276.215.5.48.5h24.04c.265 0 .48-.224.48-.5v-2c0-.276-.215-.5-.48-.5zm-.482 2H2.962v-1h23.076v1z" transform="translate(0 .25)"/>
        <path d="M23.5 10h-7c-.276 0-.5.224-.5.5v3c0 .276.224.5.5.5h7c.276 0 .5-.224.5-.5v-3c0-.276-.224-.5-.5-.5zm-.5 3h-6v-2h6v2z" transform="translate(0 .25)"/>
        <path d="M23.5 8h-8c-.276 0-.5.224-.5.5v2c0 .276.224.5.5.5h8c.276 0 .5-.224.5-.5v-2c0-.276-.224-.5-.5-.5zm-.5 2h-7V9h7v1zM12.5 21h-7c-.276 0-.5.224-.5.5v3c0 .276.224.5.5.5h7c.276 0 .5-.224.5-.5v-3c0-.276-.224-.5-.5-.5zm-.5 3H6v-2h6v2z" transform="translate(0 .25)"/>
        <path d="M13.5 19h-8c-.276 0-.5.224-.5.5v2c0 .276.224.5.5.5h8c.276 0 .5-.224.5-.5v-2c0-.276-.224-.5-.5-.5zm-.5 2H6v-1h7v1zM22.5 21h-5c-.276 0-.5.224-.5.5v3c0 .276.224.5.5.5h5c.276 0 .5-.224.5-.5v-3c0-.276-.224-.5-.5-.5zm-.5 3h-4v-2h4v2z" transform="translate(0 .25)"/>
        <path d="M23.5 19h-6c-.276 0-.5.224-.5.5v2c0 .276.224.5.5.5h6c.276 0 .5-.224.5-.5v-2c0-.276-.224-.5-.5-.5zm-.5 2h-5v-1h5v1zM6.5 9C5.673 9 5 9.673 5 10.5v3c0 .276.224.5.5.5h2c.276 0 .5-.224.5-.5v-3C8 9.673 7.327 9 6.5 9zm.5 4H6v-2.5c0-.276.224-.5.5-.5s.5.224.5.5V13z" transform="translate(0 .25)"/>
        <path d="M6.5 8c-.276 0-.5.18-.5.4v1.2c0 .22.224.4.5.4s.5-.18.5-.4V8.4c0-.22-.224-.4-.5-.4zM11.5 9c-.827 0-1.5.673-1.5 1.5v3c0 .276.224.5.5.5h2c.276 0 .5-.224.5-.5v-3c0-.827-.673-1.5-1.5-1.5zm.5 4h-1v-2.5c0-.276.224-.5.5-.5s.5.224.5.5V13z" transform="translate(0 .25)"/>
        <path d="M11.5 8c-.276 0-.5.18-.5.4v1.2c0 .22.224.4.5.4s.5-.18.5-.4V8.4c0-.22-.224-.4-.5-.4z" transform="translate(0 .25)"/>
    </g>
</svg>
