<svg xmlns="http://www.w3.org/2000/svg" width="33" height="34" viewBox="0 0 33 34">
    <g fill="#FFF">
        <path d="M32.728 9.426L16.778.076c-.167-.098-.374-.102-.544-.008l-15.95 8.8C.11 8.966 0 9.15 0 9.35v23.1c0 .304.246.55.55.55H3.3c.304 0 .55-.246.55-.55V13.2h25.3v19.25c0 .304.246.55.55.55h2.75c.304 0 .55-.246.55-.55V9.9c0-.195-.103-.376-.272-.474zM31.9 31.9h-1.65V12.65c0-.304-.246-.55-.55-.55H3.3c-.304 0-.55.246-.55.55V31.9H1.1V9.674l15.392-8.492L31.9 10.215V31.9z" transform="translate(0 .25)"/>
        <path d="M27.5 26h-6c-.277 0-.5.223-.5.5v6c0 .277.223.5.5.5h6c.277 0 .5-.223.5-.5v-6c0-.277-.223-.5-.5-.5zm-.5 6h-5v-5h5v5z" transform="translate(0 .25)"/>
        <path d="M25 26v1.8h-1V26h-1v2.4c0 .332.223.6.5.6h2c.277 0 .5-.268.5-.6V26h-1zM20.5 26h-6c-.276 0-.5.223-.5.5v6c0 .277.224.5.5.5h6c.277 0 .5-.223.5-.5v-6c0-.277-.223-.5-.5-.5zm-.5 6h-5v-5h5v5z" transform="translate(0 .25)"/>
        <path d="M18 26v1.8h-1V26h-1v2.4c0 .332.224.6.5.6h2c.277 0 .5-.268.5-.6V26h-1zM27.5 19h-6c-.277 0-.5.223-.5.5v6c0 .277.223.5.5.5h6c.277 0 .5-.223.5-.5v-6c0-.277-.223-.5-.5-.5zm-.5 6h-5v-5h5v5z" transform="translate(0 .25)"/>
        <path d="M25 19v1.8h-1V19h-1v2.4c0 .332.223.6.5.6h2c.277 0 .5-.268.5-.6V19h-1zM4 16H30V17H4zM4 14H30V15H4zM19.417 8h-5.834c-.322 0-.583.224-.583.5v2c0 .276.261.5.583.5h5.834c.322 0 .583-.224.583-.5v-2c0-.276-.26-.5-.583-.5zm-.584 2h-4.666V9h4.666v1z" transform="translate(0 .25)"/>
    </g>
</svg>
