<?xml version="1.0" encoding="UTF-8"?>
<svg width="71px" height="51px" viewBox="0 0 71 51" version="1.1" xmlns="http://www.w3.org/2000/svg" xmlns:xlink="http://www.w3.org/1999/xlink">
    <!-- Generator: Sketch 63.1 (92452) - https://sketch.com -->
    <title>truck</title>
    <desc>Created with Sketch.</desc>
    <g id="Page-1" stroke="none" stroke-width="1" fill="none" fill-rule="evenodd">
        <g id="pg" transform="translate(-1667.000000, -411.000000)" fill="#000000" fill-rule="nonzero">
            <g id="truck" transform="translate(1667.000000, 411.000000)">
                <path d="M17,37 C13.1394727,37 10,40.1394727 10,44 C10,47.8605273 13.1394727,51 17,51 C20.8605273,51 24,47.8605273 24,44 C24,40.1394727 20.8603906,37 17,37 Z M17,48.6666211 C14.4262695,48.6666211 12.3333789,46.5735937 12.3333789,44 C12.3333789,41.4262695 14.4264063,39.3333789 17,39.3333789 C19.5735938,39.3333789 21.6666211,41.4264063 21.6666211,44 C21.6666211,46.5735938 19.5735938,48.6666211 17,48.6666211 Z" id="Shape"></path>
                <path d="M57,37 C53.1394727,37 50,40.1394727 50,44 C50,47.8605273 53.1394727,51 57,51 C60.8605273,51 64,47.8605273 64,44 C64,40.1394727 60.8605273,37 57,37 Z M57,48.6666211 C54.4262695,48.6666211 52.3333789,46.5735937 52.3333789,44 C52.3333789,41.4262695 54.4264063,39.3333789 57,39.3333789 C59.5737305,39.3333789 61.6666211,41.4264063 61.6666211,44 C61.6666211,46.5735938 59.5737305,48.6666211 57,48.6666211 Z" id="Shape"></path>
                <path d="M70.8122002,30.1366667 L60.1757611,13.5440278 C59.9583234,13.205 59.5836937,13 59.1817803,13 L46.1817804,13 C45.5282211,13 45,13.5309722 45,14.1851389 L45,43.8147222 C45,44.4701389 45.5282211,45 46.1817804,45 L50.9090405,45 L50.9090405,42.6294444 L47.3635608,42.6294444 L47.3635608,15.3704167 L58.5365307,15.3704167 L68.636439,31.12625 L68.636439,42.6297222 L62.72726,42.6297222 L62.72726,45 L69.8182194,45 C70.4717787,45 71,44.4702778 71,43.8148611 L71,30.7777778 C71,30.5513889 70.935184,30.3273611 70.8122002,30.1366667 Z" id="Path"></path>
                <path d="M52.374913,28.6364392 L52.374913,20.3636993 L61.8749826,20.3636993 L61.8749826,18 L51.1874565,18 C50.5307581,18 50,18.5294675 50,19.1817804 L50,29.8182196 C50,30.4717789 50.5307581,31 51.1874565,31 L69,31 L69,28.6363007 L52.374913,28.6363007 L52.374913,28.6364392 Z" id="Path"></path>
                <path d="M45.8250448,5 L1.17495525,5 C0.526409694,5 0,5.52706862 0,6.17642598 L0,43.823574 C0,44.4741722 0.526409694,45 1.17495525,45 L10.5750103,45 L10.5750103,42.6470102 L2.35004819,42.6470102 L2.35004819,7.35285197 L44.6500895,7.35285197 L44.6500895,42.6470102 L22.3249759,42.6470102 L22.3249759,45 L45.8250448,45 C46.4748296,45 47,44.4741722 47,43.823574 L47,6.17642598 C47,5.52706862 46.4748296,5 45.8250448,5 Z" id="Path"></path>
                <rect id="Rectangle" x="1" y="38" width="7" height="2"></rect>
                <rect id="Rectangle" x="25" y="38" width="20" height="2"></rect>
                <rect id="Rectangle" x="65" y="38" width="4" height="2"></rect>
                <rect id="Rectangle" x="5" y="10" width="41" height="2"></rect>
                <rect id="Rectangle" x="16" y="43" width="2" height="2"></rect>
                <rect id="Rectangle" x="56" y="43" width="2" height="2"></rect>
                <rect id="Rectangle" x="5" y="0" width="16" height="2"></rect>
                <rect id="Rectangle" x="0" y="0" width="2" height="2"></rect>
            </g>
        </g>
    </g>
</svg>