<svg xmlns="http://www.w3.org/2000/svg" width="27" height="23" viewBox="0 0 27 23">
    <path fill="#1A173B" d="M14.173 1.925l-.006-.009c-.152-.235-.4-.376-.667-.376-.264 0-.513.14-.666.374l-.007.011L1.699 20.271l-.006.01c-.294.526.035 1.158.666 1.179h16.965c.219 0 .396-.173.396-.386 0-.213-.177-.385-.396-.385-.007 0-16.945 0-16.953-.002C2.377 20.671 13.49 2.351 13.5 2.33c.012.024 11.123 18.331 11.128 18.358-.01.002-3.71 0-3.722 0-.218 0-.395.173-.395.386 0 .214.177.386.395.386h3.735c.622-.02.966-.65.665-1.179L14.173 1.925zm.398 5.627c-.275-.29-.666-.458-1.071-.458-.405 0-.796.167-1.07.458-.276.29-.415.683-.383 1.078l.203 2.483c.017.212.208.37.426.354.217-.017.38-.203.362-.416l-.203-2.483c-.015-.183.047-.358.175-.493s.302-.209.49-.209.362.074.49.21c.128.134.19.31.175.492l-.52 6.358c-.006.073-.07.13-.145.13-.075 0-.139-.057-.145-.13l-.206-2.53c-.018-.212-.208-.37-.426-.353-.218.017-.38.203-.363.415l.207 2.529c.038.471.448.84.933.84.485 0 .895-.369.933-.84l.52-6.357c.032-.395-.107-.788-.382-1.078zm12.09 11.93L15.536 1.135C15.103.425 14.343 0 13.5 0c-.843 0-1.603.425-2.034 1.136L.338 19.48c-.444.733-.451 1.612-.019 2.351C.747 22.563 1.514 23 2.373 23h22.254c.859 0 1.626-.437 2.054-1.168.432-.74.425-1.618-.02-2.35zm-.667 1.968c-.285.487-.796.778-1.367.778H2.373c-.57 0-1.082-.29-1.367-.778-.29-.496-.285-1.085.013-1.576L12.146 1.53c.288-.474.794-.757 1.354-.757s1.066.283 1.354.757L25.98 19.874c.298.491.302 1.08.013 1.576zM13.5 16.564c-.686 0-1.245.544-1.245 1.214 0 .67.559 1.214 1.245 1.214s1.245-.545 1.245-1.214c0-.67-.559-1.214-1.245-1.214zm0 1.656c-.25 0-.454-.198-.454-.442s.204-.443.454-.443.454.199.454.443-.204.442-.454.442z"/>
</svg>
