<svg xmlns="http://www.w3.org/2000/svg" width="50" height="50" viewBox="0 0 50 50">
    <g>
        <path d="M34.138 20.607l-.031-.075c-.014-.042-.031-.083-.051-.122-.018-.027-.037-.052-.058-.077-.021-.033-.046-.064-.072-.094-.025-.022-.05-.042-.078-.062-.026-.024-.054-.046-.083-.067l-8.333-5c-.264-.159-.595-.159-.859 0l-8.333 5c-.03.02-.06.043-.087.067-.028.02-.054.04-.079.062-.026.03-.05.06-.072.093-.02.025-.04.05-.058.078-.02.038-.036.078-.05.12-.012.025-.022.051-.031.078-.02.07-.03.143-.03.216v8.333c0 .293.154.564.405.715l8.333 5 .009.004.01.006c.043.023.089.042.136.056.019.007.037.018.057.024.142.038.292.038.434 0 .02-.006.038-.017.057-.024.047-.014.093-.033.137-.056l.009-.006.01-.004 8.333-5c.25-.151.404-.422.404-.715v-8.333c0-.073-.01-.146-.03-.217zM25 16.796l2.547 1.528-6.714 4.028-2.546-1.528L25 16.796zm-.833 15.889l-6.667-4v-6.39l6.667 4v6.39zM25 24.852l-2.547-1.528 6.714-4.028 2.546 1.528L25 24.852zm7.5 3.834l-6.667 4v-6.39l6.667-4v6.39zM25.667.324c-.303-.368-.847-.421-1.216-.118-.043.035-.082.075-.118.118l-2.5 3.333 1.334 1 1-1.333v6.667h1.666V3.324l1 1.333 1.334-1-2.5-3.333zM26.833 45.324l-1 1.333v-6.666h-1.666v6.666l-1-1.333-1.334 1 2.5 3.333c.276.369.799.443 1.167.167.063-.047.12-.103.167-.167l2.5-3.333-1.334-1zM24.167 11.657H25.834000000000003V13.324H24.167zM24.167 36.657H25.834000000000003V38.324H24.167zM10 24.157H3.333l1.334-1-1-1.333-3.334 2.5c-.368.276-.442.798-.166 1.167.047.063.103.119.166.166l3.334 2.5 1-1.333-1.334-1H10v-1.667zM49.833 24.49c-.047-.062-.103-.119-.166-.166l-3.334-2.5-1 1.333 1.334 1H40v1.667h6.667l-1.334 1 1 1.333 3.334-2.5c.368-.276.442-.798.166-1.166zM11.667 24.157H13.334V25.824H11.667zM36.667 24.157H38.334V25.824H36.667zM14.982 13.795L10.27 9.082l1.65.235.235-1.65-4.124-.593c-.455-.068-.88.247-.947.702-.012.081-.012.164 0 .245l.59 4.124 1.65-.236-.236-1.65 4.714 4.714 1.181-1.178zM42.915 41.96l-.59-4.123-1.65.237.234 1.65-4.713-4.714-1.178 1.178 4.713 4.714-1.648-.237-.236 1.65 4.125.59c.039.005.078.008.118.007.46 0 .833-.373.833-.833 0-.04-.002-.079-.008-.118z"/>
        <path d="M15.328 15.319L16.995 15.319 16.995 16.986 15.328 16.986z" transform="rotate(-45 16.161 16.152)"/>
        <path d="M33.006 32.996L34.673 32.996 34.673 34.662 33.006 34.662z" transform="rotate(-45 33.84 33.83)"/>
        <path d="M10.266 40.9l4.713-4.713-1.175-1.179-4.713 4.714.235-1.65-1.65-.235-.593 4.124c-.065.455.251.878.707.943.04.006.079.008.118.008.04 0 .08-.002.119-.008l4.124-.59-.236-1.65-1.65.236zM42.678 7.313c-.185-.187-.448-.274-.708-.236l-4.124.59.236 1.65 1.649-.235-4.714 4.713 1.179 1.178 4.713-4.713-.235 1.647 1.65.238.59-4.124c.037-.26-.05-.522-.236-.708z"/>
        <path d="M15.329 32.996L16.995 32.996 16.995 34.663 15.329 34.663z" transform="rotate(-45 16.162 33.83)"/>
        <path d="M33.006 15.316L34.673 15.316 34.673 16.983 33.006 16.983z" transform="rotate(-45 33.84 16.15)"/>
    </g>
</svg>
