<svg xmlns="http://www.w3.org/2000/svg" width="23" height="20" viewBox="0 0 23 20">
    <path fill="#005FB1" fill-rule="evenodd" d="M22.089 7.393c-.607-1.495-1.425-2.783-2.451-3.863-1.027-1.081-2.25-1.941-3.671-2.58-1.42-.64-2.91-.96-4.467-.96-1.557 0-3.046.32-4.467.96-1.42.64-2.643 1.499-3.67 2.58C2.336 4.61 1.519 5.898.91 7.393.304 8.888 0 10.455 0 12.093c0 2.36.603 4.534 1.81 6.525.162.26.393.391.693.391h17.994c.3 0 .53-.13.693-.391 1.207-2 1.81-4.174 1.81-6.525 0-1.638-.304-3.205-.911-4.7zm-11.75-5.167c.32-.337.707-.506 1.161-.506.454 0 .84.169 1.162.506.32.338.481.745.481 1.223 0 .477-.16.884-.482 1.222-.32.338-.707.507-1.161.507-.454 0-.84-.17-1.162-.507-.32-.338-.48-.745-.48-1.222 0-.478.16-.885.48-1.223zm-5.892 11.09c-.32.338-.708.507-1.161.507-.454 0-.84-.17-1.162-.507-.32-.338-.481-.745-.481-1.223 0-.477.16-.884.481-1.222.321-.338.708-.507 1.162-.507.453 0 .84.17 1.161.507.321.338.482.745.482 1.222 0 .478-.16.885-.482 1.223zm2.465-6.052c-.321.338-.708.507-1.162.507-.454 0-.84-.169-1.162-.507-.32-.337-.48-.745-.48-1.222s.16-.885.48-1.222c.321-.338.708-.507 1.162-.507.454 0 .84.17 1.162.507.32.337.48.745.48 1.222s-.16.885-.48 1.222zm7.27.115l-1.296 5.16c.428.306.736.716.924 1.23.188.513.214 1.04.077 1.58-.17.693-.552 1.22-1.142 1.58-.59.36-1.215.45-1.874.27s-1.16-.58-1.502-1.202c-.342-.621-.427-1.279-.256-1.972.137-.54.406-.984.808-1.33.402-.347.86-.543 1.374-.588l1.296-5.16c.06-.234.188-.412.385-.534.197-.12.402-.15.616-.087.214.063.379.196.494.398.116.203.148.421.096.655zm1.906-.115c-.32-.337-.481-.745-.481-1.222s.16-.885.482-1.222c.32-.338.707-.507 1.161-.507.454 0 .84.17 1.162.507.32.337.481.745.481 1.222s-.16.885-.482 1.222c-.32.338-.707.507-1.161.507-.454 0-.84-.169-1.162-.507zm4.788 6.052c-.321.338-.708.507-1.162.507-.453 0-.84-.17-1.161-.507-.321-.338-.482-.745-.482-1.223 0-.477.16-.884.482-1.222.32-.338.708-.507 1.161-.507.454 0 .84.17 1.162.507.32.338.481.745.481 1.222 0 .478-.16.885-.481 1.223z"/>
</svg>
