<svg xmlns="http://www.w3.org/2000/svg" width="50" height="49" viewBox="0 0 50 49">
    <path d="M49.439 27.295c-.394-.424-.952-.667-1.531-.667h-4.054v-.397c0-4.049-3.293-7.342-7.342-7.342-4.048 0-7.342 3.293-7.342 7.342v.397h-4.054c-.578 0-1.136.243-1.53.667-.395.423-.597.997-.556 1.574l.802 11.266H1.465V14.417c0-.602.49-1.09 1.09-1.09H6.78v2.508c0 .615.5 1.115 1.115 1.115H9.96c.615 0 1.115-.5 1.115-1.115v-2.509h11.71v2.51c0 .614.5 1.114 1.115 1.114h2.065c.615 0 1.115-.5 1.115-1.115v-2.509h4.225c.601 0 1.09.49 1.09 1.09v3.09c0 .405.329.733.733.733.405 0 .733-.328.733-.732v-3.09c0-1.41-1.147-2.556-2.556-2.556H27.08V4.932C27.08 2.212 24.868 0 22.148 0H11.712C8.992 0 6.78 2.213 6.78 4.932v3.543c0 .405.328.733.733.733.404 0 .732-.328.732-.733V4.932c0-1.912 1.555-3.467 3.467-3.467h10.436c1.912 0 3.467 1.555 3.467 3.467v10.553H24.25V12.61v-.016-7.057c0-1.492-1.214-2.706-2.706-2.706h-9.228c-1.492 0-2.706 1.214-2.706 2.706v9.95H8.245v-2.877-.016-1.188c0-.405-.328-.733-.732-.733-.405 0-.733.328-.733.733v.456H2.556C1.146 11.861 0 13.008 0 14.417v28.981c0 1.41 1.146 2.556 2.556 2.556h21.69l.038.525c.084 1.187 1.082 2.116 2.272 2.116h19.913c1.19 0 2.187-.929 2.272-2.116l.406-5.701c.029-.404-.275-.754-.679-.783-.4-.029-.754.275-.782.678l-.406 5.703c-.03.423-.387.755-.811.755H26.556c-.425 0-.78-.332-.811-.755l-.085-1.19-.002-.033-.307-4.306c0-.022-.002-.043-.004-.064l-.856-12.019c-.012-.175.047-.343.167-.472.12-.128.282-.199.459-.199h4.053v1.226c-1.024.314-1.77 1.27-1.77 2.395 0 1.38 1.122 2.504 2.503 2.504 1.38 0 2.504-1.123 2.504-2.504 0-1.126-.747-2.08-1.772-2.395v-1.226H42.39v1.226c-1.024.314-1.77 1.27-1.77 2.395 0 1.38 1.122 2.504 2.503 2.504 1.38 0 2.504-1.123 2.504-2.504 0-1.126-.747-2.08-1.772-2.395v-1.226h4.054c.176 0 .34.07.459.2.12.128.18.296.167.472l-.64 8.994c-.03.403.274.754.678.782.402.03.754-.275.783-.678l.64-8.994c.04-.577-.162-1.151-.556-1.574zm-37.123-23h9.228c.684 0 1.241.557 1.241 1.24v6.326h-11.71V5.536c0-.684.557-1.241 1.241-1.241zm-9.76 40.194c-.602 0-1.091-.49-1.091-1.09v-1.8h22.471l.206 2.89H2.556zm28.386-12.775c0 .573-.466 1.039-1.04 1.039-.572 0-1.038-.466-1.038-1.04 0-.33.156-.626.398-.816.125.225.365.377.64.377.276 0 .517-.152.642-.377.242.19.398.486.398.817zm13.219 0c0 .573-.466 1.039-1.04 1.039-.572 0-1.038-.466-1.038-1.04 0-.33.156-.626.398-.816.125.225.365.377.64.377.277 0 .517-.152.642-.377.242.19.398.486.398.817zm-10.3-5.086v-2.643c0-.405-.328-.733-.733-.733-.405 0-.732.328-.732.733v2.643h-1.76v-.397c0-3.24 2.635-5.877 5.876-5.877 3.241 0 5.877 2.636 5.877 5.877v.397H33.86z"/>
</svg>
