<svg xmlns="http://www.w3.org/2000/svg" xmlns:xlink="http://www.w3.org/1999/xlink" width="467" height="230" viewBox="0 0 467 230">
    <defs>
        <path id="prefix__a" d="M0.361 0.709L4.28 0.709 4.28 3.209 0.361 3.209z"/>
        <path id="prefix__c" d="M0.004 0.346L61.308 0.346 61.308 98 0.004 98z"/>
        <path id="prefix__e" d="M0.5 0.096L2.936 0.096 2.936 2.596 0.5 2.596z"/>
    </defs>
    <g fill="none" fill-rule="evenodd" transform="translate(-1)">
        <g opacity=".601">
            <path fill="#616161" d="M399.96 88.455c-.48.072.04.51-.52.726-.56.22-.52.58-.242.727.281.144.082.613 0 .94-.08.327.361.072.682-.253.32-.327.652.157.721-.146.08-.361-.84-.541-.8-.907.04-.36.639.11 1.119-.108.48-.216 1.44-.034 2.04.435.599.472.76.291.88-.288.12-.58 1.04-.835 1.96-.835.92 0 1-.399.72-.582-.28-.178 1.52-1.23 1.48-1.522-.04-.288-.96.654-1.24.327s-.76.18-1.36.289c-.6.11-2.48-1.304-2.96-1.958-.48-.651-1.279-.108-.878.363.398.472-.083.616-.083 1.27 0 .652-.477.652-.397 1.087.08.435-.642.363-1.122.435"/>
            <path fill="#616161" d="M399.96 88.455c-.48.072.04.51-.52.726-.56.22-.52.58-.242.727.281.144.082.613 0 .94-.08.327.361.072.682-.253.32-.327.652.157.721-.146.08-.361-.84-.541-.8-.907.04-.36.639.11 1.119-.108.48-.216 1.44-.034 2.04.435.599.472.76.291.88-.288.12-.58 1.04-.835 1.96-.835.92 0 1-.399.72-.582-.28-.178 1.52-1.23 1.48-1.522-.04-.288-.96.654-1.24.327s-.76.18-1.36.289c-.6.11-2.48-1.304-2.96-1.958-.48-.651-1.279-.108-.878.363.398.472-.083.616-.083 1.27 0 .652-.477.652-.397 1.087.08.435-.642.363-1.122.435M394.035 100.15c.039-.328-.715-.146-1.623.185-.911.33-1.465-.365-1.98.11-.514.476-1.386 1.321-2.058 1.43-.675.11-.286.863 0 .732.475-.221 1.229 0 1.465-.33s2.177-.732 3.363-.768c1.187-.04.475.512.557 1.098.079.588 1.068.476 1.583-.073.512-.549.911-.513.475-.843-.436-.33.079-.622.397-.182.315.437 1.305.476 1.7-.11.397-.588.516.11.988.07.478-.036.756-1.134.796-.73.039.403.79.29 1.265-.183.475-.476.04-1.32.357-1.76.318-.44.633-1.356.318-1.907-.318-.547.711-.916 1.226-1.354.515-.44-.593-2.64-.633-3.3-.04-.659-1.307.258-1.704.44-.396.184-.672 1.32-.236 1.65.436.328-.714.953-.675 1.648.042.697-.714.697-.83 1.21-.12.513-.553.403-1.228.88-.672.476-1.03-.076-.872-.401.16-.33-1.029.182-.99.989.042.804-1.108.877-.83 1.246.276.365-.87.584-.831.253"/>
            <path fill="#616161" d="M394.035 100.15c.039-.328-.715-.146-1.623.185-.911.33-1.465-.365-1.98.11-.514.476-1.386 1.321-2.058 1.43-.675.11-.286.863 0 .732.475-.221 1.229 0 1.465-.33s2.177-.732 3.363-.768c1.187-.04.475.512.557 1.098.079.588 1.068.476 1.583-.073.512-.549.911-.513.475-.843-.436-.33.079-.622.397-.182.315.437 1.305.476 1.7-.11.397-.588.516.11.988.07.478-.036.756-1.134.796-.73.039.403.79.29 1.265-.183.475-.476.04-1.32.357-1.76.318-.44.633-1.356.318-1.907-.318-.547.711-.916 1.226-1.354.515-.44-.593-2.64-.633-3.3-.04-.659-1.307.258-1.704.44-.396.184-.672 1.32-.236 1.65.436.328-.714.953-.675 1.648.042.697-.714.697-.83 1.21-.12.513-.553.403-1.228.88-.672.476-1.03-.076-.872-.401.16-.33-1.029.182-.99.989.042.804-1.108.877-.83 1.246.276.365-.87.584-.831.253M386.598 103.462c-.544.437-.727.516-.508.952.217.437.544.04.688-.394.147-.437.51.634.183 1.35-.327.713.04 1.719.471 1.624.364-.08.835-1.506 1.378-2.264.544-.752-.254-.473-.254-.87 0-.398-.799-.32-.833-.675-.038-.358-.582-.16-1.125.277"/>
            <path fill="#616161" d="M386.598 103.462c-.544.437-.727.516-.508.952.217.437.544.04.688-.394.147-.437.51.634.183 1.35-.327.713.04 1.719.471 1.624.364-.08.835-1.506 1.378-2.264.544-.752-.254-.473-.254-.87 0-.398-.799-.32-.833-.675-.038-.358-.582-.16-1.125.277M391.022 104.453c.114-.543.723-.723 1.101-.498.38.228.877-.678.877-1.356 0-.681-1.141-.681-1.293-.183-.153.498-.61.273-1.216.41-.608.136-.628 1.86-.19 2.035.343.138.608.138.721-.408"/>
            <path fill="#616161" d="M391.022 104.453c.114-.543.723-.723 1.101-.498.38.228.877-.678.877-1.356 0-.681-1.141-.681-1.293-.183-.153.498-.61.273-1.216.41-.608.136-.628 1.86-.19 2.035.343.138.608.138.721-.408M361.301 124.11c.038-.542.791-1.397.69-1.808-.077-.315-1.112-.132-1.61-.132-.499 0-1.765.858-1.267 2.076.499 1.22 2.15.408 2.187-.135"/>
            <path fill="#616161" d="M361.301 124.11c.038-.542.791-1.397.69-1.808-.077-.315-1.112-.132-1.61-.132-.499 0-1.765.858-1.267 2.076.499 1.22 2.15.408 2.187-.135M374.99 118.993c.453-.256 2.307-3.418 1.899-3.862-.405-.441-2.214.256-2.712 1.729-.498 1.473.66 2.219.813 2.133"/>
            <path fill="#616161" d="M374.99 118.993c.453-.256 2.307-3.418 1.899-3.862-.405-.441-2.214.256-2.712 1.729-.498 1.473.66 2.219.813 2.133M376.375 133.008c-.61.122-.397 1.926.081 1.834.206-.04.695 0 .735-.4.041-.396.487.717.122 1.076-.368.362-.368 1.355.203 1.477.57.119 1.63-1.794 1.467-2.153-.162-.357-.651.24-.527-.238.12-.478-1.467-1.715-2.08-1.596"/>
            <path fill="#616161" d="M376.375 133.008c-.61.122-.397 1.926.081 1.834.206-.04.695 0 .735-.4.041-.396.487.717.122 1.076-.368.362-.368 1.355.203 1.477.57.119 1.63-1.794 1.467-2.153-.162-.357-.651.24-.527-.238.12-.478-1.467-1.715-2.08-1.596M380.666 136.553c.335.605-.632.12-.708.726-.072.605-.78.12-.743.605.037.487-.745 0-1.115-.281-.372-.284-.893.768-1.45.928-.558.16-.856 1.446-.486 1.413.446-.04.67-.687 1.117-.647.447.04.299-.482.93-.362.632.12.185 2.18 1.041 2.34.856.16.893.725 1.303.725.41 0-.074-1.287-.037-1.732.037-.447.893-.042 1.34-.607.446-.568-.3-2.058-.3-3.027 0-.97-1.228-.688-.892-.08"/>
            <path fill="#616161" d="M380.666 136.553c.335.605-.632.12-.708.726-.072.605-.78.12-.743.605.037.487-.745 0-1.115-.281-.372-.284-.893.768-1.45.928-.558.16-.856 1.446-.486 1.413.446-.04.67-.687 1.117-.647.447.04.299-.482.93-.362.632.12.185 2.18 1.041 2.34.856.16.893.725 1.303.725.41 0-.074-1.287-.037-1.732.037-.447.893-.042 1.34-.607.446-.568-.3-2.058-.3-3.027 0-.97-1.228-.688-.892-.08M373.662 130.698c.135.636.45 1.947 1.446 1.629.996-.318-1.545-2.082-1.446-1.629"/>
            <path fill="#616161" d="M373.662 130.698c.135.636.45 1.947 1.446 1.629.996-.318-1.545-2.082-1.446-1.629M380.04 136.131c-.36-.45-1.265.387-1.13.723.18.456 1.494-.273 1.13-.723"/>
            <path fill="#616161" d="M380.04 136.131c-.36-.45-1.265.387-1.13.723.18.456 1.494-.273 1.13-.723M373.04 126.884c-.121.336.043 1.715.365 1.715.326 0 .568.376.366.973-.204.596.608.67 1.377.41.771-.262.486.486 1.258.374.771-.113 1.825.785 1.664 1.12-.164.333.038 1.417.403 1.118.366-.295.933.074.568.56-.366.484.567.972.688 1.569.124.596.53.111.446-.337-.078-.448.084-.41.61-.748.527-.334-.043-.896-.365-1.53-.323-.633-1.54-.41-1.54-1.007 0-.596-.893-.782-.934-1.118-.04-.337-1.215-.674-1.903-.3-.691.374-.204-.673-.691-1.156-.487-.485.366-1.195.933-1.794.567-.597-.164-1.604-.083-2.052.083-.446.04-.597-.242-.446-.283.146-1.46-.448-1.987-.15-.527.299-.04 2.762-.283 2.95-.244.185-.559-.401-.65-.151"/>
            <path fill="#616161" d="M373.04 126.884c-.121.336.043 1.715.365 1.715.326 0 .568.376.366.973-.204.596.608.67 1.377.41.771-.262.486.486 1.258.374.771-.113 1.825.785 1.664 1.12-.164.333.038 1.417.403 1.118.366-.295.933.074.568.56-.366.484.567.972.688 1.569.124.596.53.111.446-.337-.078-.448.084-.41.61-.748.527-.334-.043-.896-.365-1.53-.323-.633-1.54-.41-1.54-1.007 0-.596-.893-.782-.934-1.118-.04-.337-1.215-.674-1.903-.3-.691.374-.204-.673-.691-1.156-.487-.485.366-1.195.933-1.794.567-.597-.164-1.604-.083-2.052.083-.446.04-.597-.242-.446-.283.146-1.46-.448-1.987-.15-.527.299-.04 2.762-.283 2.95-.244.185-.559-.401-.65-.151M371.735 135.633c-.56.74-1.897 1.974-1.719 2.307.239.454 1.719-1.81 2.438-2.348.718-.535.602-.985.36-1.482-.241-.492-.52.783-1.08 1.523"/>
            <path fill="#616161" d="M371.735 135.633c-.56.74-1.897 1.974-1.719 2.307.239.454 1.719-1.81 2.438-2.348.718-.535.602-.985.36-1.482-.241-.492-.52.783-1.08 1.523M416.04 154.04c.907.857.418 1.586.952 1.445.858-.225.225-1.086-.498-1.536-.723-.456-1.356-.77-.453.09"/>
            <path fill="#616161" d="M416.04 154.04c.907.857.418 1.586.952 1.445.858-.225.225-1.086-.498-1.536-.723-.456-1.356-.77-.453.09M409.901 157.728c.701.042.82-.357.272-.87-.543-.515-2.536-.714-2.613-1.468-.078-.752-3.628-2.536-5.188-2.89-.28-.066-.61-.168-.978-.295-1.687-.575-4.044-1.642-4.525-1.61-.585.042-.662 1.07-1.17 1.07-.506 0-1.21 1.071-2.144 1.389-.937.315-.978-2.732-1.405-3.329-.43-.594-2.77-1.07-3.004-.397-.235.676-1.048.318-1.133.873-.078.515.197.357.704.357.504 0 .504.394.74.91.233.514 1.637.16 2.108.12.466-.042.546.63-.119.394-.662-.234-.662.318-1.13.2-.469-.121-1.095-.082-.782.197.313.276.82.554.82 1.187 0 .636.898.515.898 0 0-.512.469.16 1.366.397.898.24.272.596 1.17.636.898.04 2.926.712 3.707 1.308.78.591.233.99.74 1.545.507.552.663 1.19-.039 1.19-.7 0-1.443.71-1.25 1.067.197.357 2.5-.16 3.043-.16.36 0 .72.646 1.405 1.114.365.247.813.446 1.405.473 1.718.079 1.289-.912 1.602-.912.313 0 .43-.554.779-.99.351-.437 1.873-.08 2.77.63.898.717 1.951 2.817 2.888 2.62.936-.2 1.912.554 2.77.515.86-.043.076-.715-.196-.836-.271-.116-.975-.591-.936-.909.038-.315-.78-.279-1.325-.633-.546-.358-.352-1.506-.937-1.784-.584-.279-1.014-1.148-.313-1.109"/>
            <path fill="#616161" d="M409.901 157.728c.701.042.82-.357.272-.87-.543-.515-2.536-.714-2.613-1.468-.078-.752-3.628-2.536-5.188-2.89-.28-.066-.61-.168-.978-.295-1.687-.575-4.044-1.642-4.525-1.61-.585.042-.662 1.07-1.17 1.07-.506 0-1.21 1.071-2.144 1.389-.937.315-.978-2.732-1.405-3.329-.43-.594-2.77-1.07-3.004-.397-.235.676-1.048.318-1.133.873-.078.515.197.357.704.357.504 0 .504.394.74.91.233.514 1.637.16 2.108.12.466-.042.546.63-.119.394-.662-.234-.662.318-1.13.2-.469-.121-1.095-.082-.782.197.313.276.82.554.82 1.187 0 .636.898.515.898 0 0-.512.469.16 1.366.397.898.24.272.596 1.17.636.898.04 2.926.712 3.707 1.308.78.591.233.99.74 1.545.507.552.663 1.19-.039 1.19-.7 0-1.443.71-1.25 1.067.197.357 2.5-.16 3.043-.16.36 0 .72.646 1.405 1.114.365.247.813.446 1.405.473 1.718.079 1.289-.912 1.602-.912.313 0 .43-.554.779-.99.351-.437 1.873-.08 2.77.63.898.717 1.951 2.817 2.888 2.62.936-.2 1.912.554 2.77.515.86-.043.076-.715-.196-.836-.271-.116-.975-.591-.936-.909.038-.315-.78-.279-1.325-.633-.546-.358-.352-1.506-.937-1.784-.584-.279-1.014-1.148-.313-1.109M415.134 154.694c0 .4-.585.62-1.502 1.062-.912.447-2.573-.51-2.631.135-.036.4 1.023 1.109 2.01 1.109.99 0 2.561-1.197 2.561-1.553 0-.353.621-.974.367-1.33-.255-.356-.805.177-.805.577"/>
            <path fill="#616161" d="M415.134 154.694c0 .4-.585.62-1.502 1.062-.912.447-2.573-.51-2.631.135-.036.4 1.023 1.109 2.01 1.109.99 0 2.561-1.197 2.561-1.553 0-.353.621-.974.367-1.33-.255-.356-.805.177-.805.577M427.775 162.162c.066.171.951.984 1.39.681.44-.309-1.507-.972-1.39-.68"/>
            <path fill="#616161" d="M427.775 162.162c.066.171.951.984 1.39.681.44-.309-1.507-.972-1.39-.68M420.842 157.99c-.033.17 1.053 1.22 1.29 1.052.237-.17-1.227-1.359-1.29-1.053"/>
            <path fill="#616161" d="M420.842 157.99c-.033.17 1.053 1.22 1.29 1.052.237-.17-1.227-1.359-1.29-1.053M425.55 160.102c.375-.237-2.1-1.59-2.139-1.155-.033.411 1.764 1.392 2.14 1.155"/>
            <path fill="#616161" d="M425.55 160.102c.375-.237-2.1-1.59-2.139-1.155-.033.411 1.764 1.392 2.14 1.155M425.696 161.145c.135.678 1.155 1.083 1.563.846.405-.237-1.701-1.548-1.563-.846"/>
            <path fill="#616161" d="M425.696 161.145c.135.678 1.155 1.083 1.563.846.405-.237-1.701-1.548-1.563-.846M426.905 159.505c-.34.747 1.017 2.037 1.22 2.07.205.033-.96-2.643-1.22-2.07"/>
            <path fill="#616161" d="M426.905 159.505c-.34.747 1.017 2.037 1.22 2.07.205.033-.96-2.643-1.22-2.07M418.446 155.4c-.09.411 1.359 2.562 1.899 2.217.996-.633-1.81-2.625-1.9-2.217"/>
            <path fill="#616161" d="M418.446 155.4c-.09.411 1.359 2.562 1.899 2.217.996-.633-1.81-2.625-1.9-2.217M386.551 163.766c.34.273 2.037-.066 1.968-.474-.069-.408-2.484.063-1.968.474"/>
            <path fill="#616161" d="M386.551 163.766c.34.273 2.037-.066 1.968-.474-.069-.408-2.484.063-1.968.474M293.634 8.132c.89 0 .63-.681 1.225-.588.593.09 1.373.042 1.076-.408-.296-.45-2.449-.273-2.227.09.224.36-1.742.225-1.708.36.077.273.746.546 1.634.546"/>
            <path fill="#616161" d="M293.634 8.132c.89 0 .63-.681 1.225-.588.593.09 1.373.042 1.076-.408-.296-.45-2.449-.273-2.227.09.224.36-1.742.225-1.708.36.077.273.746.546 1.634.546M302.952 9.102c1.297-.183 1.265-1.13.58-1.31-.682-.184-.784.542-1.129.497-.342-.048-1.633.285-1.367.675.308.453 1.265.228 1.916.138"/>
            <path fill="#616161" d="M302.952 9.102c1.297-.183 1.265-1.13.58-1.31-.682-.184-.784.542-1.129.497-.342-.048-1.633.285-1.367.675.308.453 1.265.228 1.916.138M300.941 9.639c.279-.408-.52-.408-.602-.813-.077-.408-2.32-.498-2.201-.045.12.45-1.55.942-1.04 1.4.96.862 3.562-.134 3.843-.542"/>
            <path fill="#616161" d="M300.941 9.639c.279-.408-.52-.408-.602-.813-.077-.408-2.32-.498-2.201-.045.12.45-1.55.942-1.04 1.4.96.862 3.562-.134 3.843-.542M293.72 9.803c.104.363-.177.408-.876.408-.7 0-1.065.513-.7.903.42.456 2.274.273 2.59-.27.316-.543 1.121-.09 1.26-.633.142-.543-2.379-.768-2.274-.408"/>
            <path fill="#616161" d="M293.72 9.803c.104.363-.177.408-.876.408-.7 0-1.065.513-.7.903.42.456 2.274.273 2.59-.27.316-.543 1.121-.09 1.26-.633.142-.543-2.379-.768-2.274-.408M294.992 8.524c.126-.948-1.341-.183-2.436-.678-1.09-.498-1.734-.462-1.005.228.337.315-1.87.56-1.511.948.796.858 4.827.45 4.952-.498"/>
            <path fill="#616161" d="M294.992 8.524c.126-.948-1.341-.183-2.436-.678-1.09-.498-1.734-.462-1.005.228.337.315-1.87.56-1.511.948.796.858 4.827.45 4.952-.498M284.258 8.959c.579.45-1.614.315-1.902.768-.291.453-1.567.288-1.326.813.247.543 2.317.59 2.317.135 0-.45 1.078-.042 1.117-.45.043-.408.496-.858 1.657-.951 1.158-.09 1.158-.543.08-1.086-1.073-.54-2.522.318-1.943.77"/>
            <path fill="#616161" d="M284.258 8.959c.579.45-1.614.315-1.902.768-.291.453-1.567.288-1.326.813.247.543 2.317.59 2.317.135 0-.45 1.078-.042 1.117-.45.043-.408.496-.858 1.657-.951 1.158-.09 1.158-.543.08-1.086-1.073-.54-2.522.318-1.943.77M289.479 10.43c0-.722-2.355.076-1.9.226.406.138 1.9.498 1.9-.225"/>
            <path fill="#616161" d="M289.479 10.43c0-.722-2.355.076-1.9.226.406.138 1.9.498 1.9-.225M279.967 9.725c.818-.95 1.883-.048 2.024-.498.144-.453-1.526-.588-2.13-.183-.605.408-2.019.084-1.847.591.106.315 1.136 1.038 1.953.09"/>
            <path fill="#616161" d="M279.967 9.725c.818-.95 1.883-.048 2.024-.498.144-.453-1.526-.588-2.13-.183-.605.408-2.019.084-1.847.591.106.315 1.136 1.038 1.953.09M403.431 75.314c.267.683-.366 4.336-.1 4.944.266.607-.434 3.3-.2 3.612.4.53.132-.726.73-.837.602-.113.602.76.968.948.367.192.135-1.215-.199-1.14-.333.079-.6-.912-.768-1.52-.164-.607.336-1.33.336-2.09 0-.761.832-.723 1.331-.153.5.572.566.189.367-.23-.201-.418-.833-3.459-1.2-4.56-.366-1.102.533-2.169-.134-2.739-.665-.57-.398-1.75-.731-1.52-.333.23 0 1.256-.534 1.331-.533.076-.034.646-.232 1.407-.199.762.1 1.863.366 2.547"/>
            <path fill="#616161" d="M403.431 75.314c.267.683-.366 4.336-.1 4.944.266.607-.434 3.3-.2 3.612.4.53.132-.726.73-.837.602-.113.602.76.968.948.367.192.135-1.215-.199-1.14-.333.079-.6-.912-.768-1.52-.164-.607.336-1.33.336-2.09 0-.761.832-.723 1.331-.153.5.572.566.189.367-.23-.201-.418-.833-3.459-1.2-4.56-.366-1.102.533-2.169-.134-2.739-.665-.57-.398-1.75-.731-1.52-.333.23 0 1.256-.534 1.331-.533.076-.034.646-.232 1.407-.199.762.1 1.863.366 2.547M338.58 8.457c.183-.681-2.823-.387-2.037.27.273.225 1.854.408 2.037-.27"/>
            <path fill="#616161" d="M338.58 8.457c.183-.681-2.823-.387-2.037.27.273.225 1.854.408 2.037-.27M341.006 11.9c0 .427-1.314.851-.938 1.162.324.275.61.195 1.02.273.408.08.61 1.046 1.343.891.736-.154 2.735.774 3.917.774 1.184 0 1.306-.928.938-.969-.368-.039-.04-.578.611-1.47.655-.892-2.039-1.553-2.039-.853 0 .696-.773-.157-1.02-.584-.243-.427-3.832.35-3.832.776"/>
            <path fill="#616161" d="M341.006 11.9c0 .427-1.314.851-.938 1.162.324.275.61.195 1.02.273.408.08.61 1.046 1.343.891.736-.154 2.735.774 3.917.774 1.184 0 1.306-.928.938-.969-.368-.039-.04-.578.611-1.47.655-.892-2.039-1.553-2.039-.853 0 .696-.773-.157-1.02-.584-.243-.427-3.832.35-3.832.776M339.356 10.286c.705.297.444.485-.298.485-.739 0-1.375.253-.886.448.37.149.331.562 1.11.748.779.186 1.557-.45 1.481-.899-.074-.445 2.705-.856 3.446-1.042.74-.19-.481-.973.332-1.047.815-.074.484-.448-.518-.6-1-.148-.592-1.007-.926-1.304-.332-.3-.519.374-1.816.634-1.297.262-1.925.597-1.407.859.52.26 0 .896-.555.859-.555-.037-.666.56.037.859"/>
            <path fill="#616161" d="M339.356 10.286c.705.297.444.485-.298.485-.739 0-1.375.253-.886.448.37.149.331.562 1.11.748.779.186 1.557-.45 1.481-.899-.074-.445 2.705-.856 3.446-1.042.74-.19-.481-.973.332-1.047.815-.074.484-.448-.518-.6-1-.148-.592-1.007-.926-1.304-.332-.3-.519.374-1.816.634-1.297.262-1.925.597-1.407.859.52.26 0 .896-.555.859-.555-.037-.666.56.037.859M347.13 16.928c.534.28 2.252-.353 3.396-.32 1.144.037 4.35-.81 4.467-1.376.114-.564-1.184-.527-1.68-1.023-.494-.493-1.602-.07-1.87.354-.266.423-.573.035.154-.634.723-.672-.727-1.2-.765-.777-.038.42-1.374.07-1.374.458 0 .389-.496.564-.458.953.038.388-.916-.213-.954.669-.036.882-1.478 1.399-.916 1.696"/>
            <path fill="#616161" d="M347.13 16.928c.534.28 2.252-.353 3.396-.32 1.144.037 4.35-.81 4.467-1.376.114-.564-1.184-.527-1.68-1.023-.494-.493-1.602-.07-1.87.354-.266.423-.573.035.154-.634.723-.672-.727-1.2-.765-.777-.038.42-1.374.07-1.374.458 0 .389-.496.564-.458.953.038.388-.916-.213-.954.669-.036.882-1.478 1.399-.916 1.696M378.023 159.396c.726-.048 1.536-.27.445-.45-1.09-.18-1.82.723-2.91.267-1.09-.447-2.722.009-2.545.408.161.363 1.13.408 2.221.456 1.093.042 2.063-.636 2.79-.681"/>
            <path fill="#616161" d="M378.023 159.396c.726-.048 1.536-.27.445-.45-1.09-.18-1.82.723-2.91.267-1.09-.447-2.722.009-2.545.408.161.363 1.13.408 2.221.456 1.093.042 2.063-.636 2.79-.681M378.233 161.938c.49.285 1.207-.471 1.616-1.003.068-.085.127-.167.174-.235.028-.041.074-.082.13-.126.037-.033.08-.063.128-.093.737-.474 2.613-1.069 2.712-1.35.113-.332-1.141.079-1.904.04-.515-.03-.72.43-1.103.762l-.111.082c-.117.085-.255.153-.42.192l-.055.013c-.063.011-.119.02-.121.022-.005 0-.147.028-.306.055l-.126.06c-.737.329-1.126 1.288-.614 1.58"/>
            <path fill="#616161" d="M378.233 161.938c.49.285 1.207-.471 1.616-1.003.068-.085.127-.167.174-.235.028-.041.074-.082.13-.126.037-.033.08-.063.128-.093.737-.474 2.613-1.069 2.712-1.35.113-.332-1.141.079-1.904.04-.515-.03-.72.43-1.103.762l-.111.082c-.117.085-.255.153-.42.192l-.055.013c-.063.011-.119.02-.121.022-.005 0-.147.028-.306.055l-.126.06c-.737.329-1.126 1.288-.614 1.58M384.647 146.775c0-.253-.315-1.275-1.041-.473-.723.802.234 2.78.813 2.695.5-.072-.405-1.058.59-.983.997.073.54-.4.54-.91 0-.512-.902-.075-.902-.329"/>
            <path fill="#616161" d="M384.647 146.775c0-.253-.315-1.275-1.041-.473-.723.802.234 2.78.813 2.695.5-.072-.405-1.058.59-.983.997.073.54-.4.54-.91 0-.512-.902-.075-.902-.329M373.21 149.105c-.327.199-.327 1.423-.977 2.567-.652 1.145.216 1.305.76 1.345.543.039.468.909.363 1.422-.11.514-.329 1.732.144 1.54.578-.238.94-1.026.614-1.301-.327-.278-.29-2.018-.144-2.453.144-.435 1.122-.118.794.553-.324.673.616.595.616 1.344 0 .752.542.357 1.12.16.58-.2.473-.553.072-1.03-.396-.474.29-1.145-.252-1.54-.542-.393-.904-.988-.398-1.106.506-.118 2.027-1.066 1.845-1.46-.18-.397-2.315.08-2.497.787-.178.712-1.699-.079-1.519-1.302.183-1.224 3.183-1.423 4.052-.988.868.435 1.808-.71 2.135-1.384.323-.67-.687.121-1.303.556-.614.435-2.243-.042-3.075-.356-.83-.317-.796.552-1.482.67-.689.12-.542 1.78-.869 1.976"/>
            <path fill="#616161" d="M373.21 149.105c-.327.199-.327 1.423-.977 2.567-.652 1.145.216 1.305.76 1.345.543.039.468.909.363 1.422-.11.514-.329 1.732.144 1.54.578-.238.94-1.026.614-1.301-.327-.278-.29-2.018-.144-2.453.144-.435 1.122-.118.794.553-.324.673.616.595.616 1.344 0 .752.542.357 1.12.16.58-.2.473-.553.072-1.03-.396-.474.29-1.145-.252-1.54-.542-.393-.904-.988-.398-1.106.506-.118 2.027-1.066 1.845-1.46-.18-.397-2.315.08-2.497.787-.178.712-1.699-.079-1.519-1.302.183-1.224 3.183-1.423 4.052-.988.868.435 1.808-.71 2.135-1.384.323-.67-.687.121-1.303.556-.614.435-2.243-.042-3.075-.356-.83-.317-.796.552-1.482.67-.689.12-.542 1.78-.869 1.976M384.013 153.351c.172.543 1.062.315 1.956.315.893 0 1.358.681 1.826.681.468 0 .13-1.179-.975-1.539-1.105-.363-2.993-.05-2.807.543"/>
            <path fill="#616161" d="M384.013 153.351c.172.543 1.062.315 1.956.315.893 0 1.358.681 1.826.681.468 0 .13-1.179-.975-1.539-1.105-.363-2.993-.05-2.807.543M381.56 153.287c.183.723 1.494 1.13 1.857.498.36-.636-2.064-1.335-1.857-.498"/>
            <path fill="#616161" d="M381.56 153.287c.183.723 1.494 1.13 1.857.498.36-.636-2.064-1.335-1.857-.498M369.964 158.794c-.16.408-.844.495-1.248.18s-.904.429-.645.813c.12.183.966.906 1.974.363 1.01-.543 1.695-.045 1.935-.633.244-.588-1.852-1.131-2.016-.723"/>
            <path fill="#616161" d="M369.964 158.794c-.16.408-.844.495-1.248.18s-.904.429-.645.813c.12.183.966.906 1.974.363 1.01-.543 1.695-.045 1.935-.633.244-.588-1.852-1.131-2.016-.723M355 154.036c-.038-.534.196-1.068.196-1.333 0-.268.195-.382.548-.306.354.076.315-.726.042-.802-.276-.074-.432-1.03-1.1-1.03-.665 0-.548.534-.156.572.393.038.627.344.51.612-.117.266-.273-.268-.824-.228-.549.038-.195-.652-.822-.69-.626-.036-.51-1.144-1.177-1.144-.666 0-.705-.534-.273-.913.429-.382-.668-.726-.668-1.184 0-.458-.705-.19-.705-.572 0-.382-.315-.192-.666-.648-.353-.46-.512-.04-.824-.384-.312-.342-.746-.534-1.019-.42-.273.116-.902-.496-1.136-1.106-.187-.485-1.999-1.298-2.235-1.945-.237-.648-.863-.916-1.921-.876-1.059.036-1.477-1.009-1.727-.498-.312.65 1.139 2.097 1.805 2.482.668.38 1.019 1.753 1.804 1.829.782.078.863 2.482 1.45 2.596.588.116 1.843 1.983 2.038 2.975.195.992 1.49 1.488 1.921 2.214.432.723 2.156 1.715 2.392 2.019.234.308.47.994.666.65.197-.342 1.019 0 1.411.04.393.038.51-1.374.47-1.91"/>
            <path fill="#616161" d="M355 154.036c-.038-.534.196-1.068.196-1.333 0-.268.195-.382.548-.306.354.076.315-.726.042-.802-.276-.074-.432-1.03-1.1-1.03-.665 0-.548.534-.156.572.393.038.627.344.51.612-.117.266-.273-.268-.824-.228-.549.038-.195-.652-.822-.69-.626-.036-.51-1.144-1.177-1.144-.666 0-.705-.534-.273-.913.429-.382-.668-.726-.668-1.184 0-.458-.705-.19-.705-.572 0-.382-.315-.192-.666-.648-.353-.46-.512-.04-.824-.384-.312-.342-.746-.534-1.019-.42-.273.116-.902-.496-1.136-1.106-.187-.485-1.999-1.298-2.235-1.945-.237-.648-.863-.916-1.921-.876-1.059.036-1.477-1.009-1.727-.498-.312.65 1.139 2.097 1.805 2.482.668.38 1.019 1.753 1.804 1.829.782.078.863 2.482 1.45 2.596.588.116 1.843 1.983 2.038 2.975.195.992 1.49 1.488 1.921 2.214.432.723 2.156 1.715 2.392 2.019.234.308.47.994.666.65.197-.342 1.019 0 1.411.04.393.038.51-1.374.47-1.91M366.305 159.758c.268-.41.76.665 1.524.044.76-.621-1.256-.374-1.297-.871-.035-.494-1.521-.041-2.243-.374-.724-.332.8-.618 1.292-.953.497-.33-.303-.453-1.521-.041-1.219.417-2.624-.91-2.662-.33-.038.58-2.208-.25-2.74-.662-.533-.417-2.589-.956-3.008-.167-.416.788-.78.082-.605.83.113.496.605.205.948.205.343 0 .192.706.687.786.492.088 2.13.582 2.28.212.154-.374 1.676 0 2.438.662.76.659 2.51.703 3.194.58.686-.124 1.448.494 1.713.079"/>
            <path fill="#616161" d="M366.305 159.758c.268-.41.76.665 1.524.044.76-.621-1.256-.374-1.297-.871-.035-.494-1.521-.041-2.243-.374-.724-.332.8-.618 1.292-.953.497-.33-.303-.453-1.521-.041-1.219.417-2.624-.91-2.662-.33-.038.58-2.208-.25-2.74-.662-.533-.417-2.589-.956-3.008-.167-.416.788-.78.082-.605.83.113.496.605.205.948.205.343 0 .192.706.687.786.492.088 2.13.582 2.28.212.154-.374 1.676 0 2.438.662.76.659 2.51.703 3.194.58.686-.124 1.448.494 1.713.079M373.467 161.695c.315.27 1.446.858 1.446.09 0-.771-3.105-1.221-2.805-.771.273.408 1.04.408 1.359.68"/>
            <path fill="#616161" d="M373.467 161.695c.315.27 1.446.858 1.446.09 0-.771-3.105-1.221-2.805-.771.273.408 1.04.408 1.359.68M359.147 147.952c.588.535.432 1.37.702 1.79.275.418 1.135.494 1.135 1.294 0 .798.743 2.054 1.251 1.711.508-.34.897.154 1.055.495.155.343 1.365-.268 1.759-.19.389.076 1.601.306 1.679.76.078.46 1.171-.035 1.915-.303.74-.267.313-2.438 1.015-2.854.702-.419.86-1.219.78-1.979-.078-.762 1.72-.797 1.993-1.102.274-.306-.39-.8-.897-1.03-.51-.227-.08-.722-.43-1.027-.352-.303-.938-1.103-.43-1.14.508-.041-.352-.725.078-.952.057-.033.124-.063.197-.099.46-.222 1.124-.515.818-.777-.35-.305 1.055-.038 1.21-.495.158-.459-.546-.838-.896-.762-.353.078-1.171.038-1.171-.305 0-.343-.744-.987-1.213-.987-.469 0-1.016.911-1.054 1.292-.04.384-.783.343-.705.876.03.21-.106.3-.285.356-.28.086-.653.083-.653.29v.336c-.5-.265-.92-.485-.93-.487h-.008c-.31 0-1.013 1.065-1.171 1.786-.156.725-.858.497-1.912.573-1.057.076-.627 1.143-.863 1.636-.212.454-1.37-.364-1.956-.48-.057-.01-.109-.018-.153-.013-.508.038-1.347 1.343-.86 1.787"/>
            <path fill="#616161" d="M359.147 147.952c.588.535.432 1.37.702 1.79.275.418 1.135.494 1.135 1.294 0 .798.743 2.054 1.251 1.711.508-.34.897.154 1.055.495.155.343 1.365-.268 1.759-.19.389.076 1.601.306 1.679.76.078.46 1.171-.035 1.915-.303.74-.267.313-2.438 1.015-2.854.702-.419.86-1.219.78-1.979-.078-.762 1.72-.797 1.993-1.102.274-.306-.39-.8-.897-1.03-.51-.227-.08-.722-.43-1.027-.352-.303-.938-1.103-.43-1.14.508-.041-.352-.725.078-.952.057-.033.124-.063.197-.099.46-.222 1.124-.515.818-.777-.35-.305 1.055-.038 1.21-.495.158-.459-.546-.838-.896-.762-.353.078-1.171.038-1.171-.305 0-.343-.744-.987-1.213-.987-.469 0-1.016.911-1.054 1.292-.04.384-.783.343-.705.876.03.21-.106.3-.285.356-.28.086-.653.083-.653.29v.336c-.5-.265-.92-.485-.93-.487h-.008c-.31 0-1.013 1.065-1.171 1.786-.156.725-.858.497-1.912.573-1.057.076-.627 1.143-.863 1.636-.212.454-1.37-.364-1.956-.48-.057-.01-.109-.018-.153-.013-.508.038-1.347 1.343-.86 1.787M282.63 164L282.186 164.381 282.002 165.296 281.26 165.863 280.617 165.863 280.632 166.435 280.617 167.787 279.667 167.918 277.929 168.828 276.338 169.133 276.041 169.617 275.818 170.845 275.626 171.52 275.965 173.164 276.242 174.692 275.67 175.786 275 177.245 276.004 181.299 277.391 182 278.223 181.871 279.52 181.375 282.704 170.958 282.927 169.513 282.927 168.437 283.624 169.032 284 168.566 283.934 167.87 283.546 166.39 283.433 165.664 283.072 164.618zM323.608 136L323 139.031 323.738 141 326 139.11zM364 183.649L365.326 186.589 366.11 188.009 366.417 189.042 366.417 189.733 367.57 192.01 367.364 192.933 367.25 194.338 366.86 194.754 366.534 194.81 366.364 195.315 366.878 195.674 367.827 196.511 370.362 196.771 371.311 196.087 372.161 195.881 372.578 195.358 373.616 195.078 377.026 195.1 377.675 194.886 378.136 194.499 378.331 194.144 379.581 193.433 380.675 192.829 383.075 192.658 384.866 191.956 386.347 191.732 387.599 191.61 389.182 192.387 390.709 192.589 391.457 192.961 391.686 194.109 392.693 194.866 392.953 195.445 393.35 196.653 394.075 195.934 394.508 195.536 395.37 194.955 395.732 194.073 396.101 193.754 396.465 193.8 395.574 196.447 395.111 196.656 396.101 196.911 396.465 195.886 397.04 196.164 397.04 197.117 396.867 197.607 397.818 197.548 398.513 198.104 398.892 198.935 398.892 200.356 399.6 201.011 400.523 201.557 402.498 201.975 403.544 202.508 404.613 202.306 405.279 201.009 405.702 201.327 405.961 202.164 406.307 201.904 407.17 202.684 407.603 203 407.646 202.141 408.852 201.863 409.715 201.23 412.122 200.894 412.552 198.27 413.28 196.977 413.804 195.343 414.506 193.323 415.598 192.931 415.598 191.844 416.379 190.773 416.379 188.394 417 187.418 416.898 186.648 416.583 185.696 416.588 183.05 416.209 183.274 415.463 182.596 414.896 181.517 414.336 181.283 413.705 180.678 413.264 180.281 413.201 178.975 412.725 178.891 411.977 178.947 411.618 177.608 410.857 176.79 410.74 176.15 407.745 174.39 407.427 173.498 407.137 172.483 407.005 171.537 406.335 170.555 406.162 168.969 405.913 168.464 405.3 167.931 404.292 167.962 403.865 167.378 403.824 165.767 403.284 164.586 402.651 163 402.022 163.321 401.816 163.949 401.501 164.991 401.661 166.205 401.327 166.432 401.251 170.015 400.811 170.729 399.717 172.256 398.582 172.123 397.849 171.221 396.981 171.047 395.304 169.846 394.391 169.574 393.528 168.597 393.907 167.628 393.76 166.866 394.594 166.259 395.024 165.394 395.144 164.953 394.737 164.759 394.248 165.277 393.76 164.586 392.78 164.991 390.248 164.211 389.039 163.462 389.528 164.326 388.971 164.867 388.062 164.979 387.541 164.933 387.169 165.308 385.729 167.442 386.044 169.038 385.123 168.681 384.52 168.365 384.291 168.737 383.65 168.084 383.138 167.845 382.044 167.036 381.296 167.47 380.894 168.077 379.886 168.105 379.657 168.681 379.052 169.115 378.792 170.382 377.843 170.298 378.484 171.611 377.642 171.94 377.123 170.958 376.522 171.078 375.634 172.123 376.059 173.006 374.738 174.288 373.764 175.471 371.886 175.489 370.647 175.89 369.876 176.443 368.743 176.318 367.858 176.813 365.873 177.963 365.555 178.661 365.41 177.853 364.748 178.804 364.807 180.275 364.293 181.301 365.326 184.08 364.921 184.34z"/>
            <path fill="#616161" d="M298.433 86.24l-.895.856h-.964l-.246-2.405-.536 1.879-.68-.552.604-1.673.612-.575h1.11l.995.92v1.55zm-10.099 7.27l.077.806.956.76v2.996l-3.473.73-.462-.847-1.23-.686-1.151-.39-.414-1.144.228-.765.647-1.251.117-1.511-2.638-3.761-.092-1.12-.768-1.617 1.524-1.556 2.012-.923 1.304-.88h1.413l1.989.384.152 1.917-1.261.344-1.608.574-.19.73-.65.42.994.844.419 1 .918.536.612.654.42 1.572.767-1.114.994 1.19.614.765-1.301.272h-1.185l.266 1.071zm176.418-47.434l-.893-.77-1.06-.474-.716.049-.593-.305-.73-.199-.955.178.635.832-.234.587-.961-.714.083-.972-.5-.692-1.638-1.083-2.458-1.07-.32-.28-1.74-.72-.74-.544-1.771-.814-1.71-.397-.885-.46-1.796-.008-1.614-.379-.819.463-2.983-.686-.421.821.936 1.478-.403.707-1.327-.006-.954-.775-.987-.598.008-.748 1.212.499.214-.735-1.492-.394-1.53 1.205-3.231-.363-3.902.228-.269 1.211-.588-1.495-1.439-.384.02-.481.209-.343-.454-.896-2.184-1.098-3.346-.013-1.855.315-2.526-.012v-.58l-.875-.488-.751.01-.497.193v-.404l-.708-.405-.919-.132-.134-.422 1.053-.084v-.417l-.784-.384-2.19-.308-1.197.003-.766 1.266-.466.303-.764-.079-.147-.338 1.015-.633-.853-.262-.6-.18.36-.385 1.435.16.23-.122-1.666-.463-1.841-.328-2.02-.096-1.26-.377-.287.028v.567l-.474.402-1.144.018-.73.379.255.577.792-.15-.345.692.312.29.089.59-.759.18-.586-.335-1.573.257.718.5-.847.056-.624-.541-1.989-.346-.703.244-1.28.226-1.155-.45-.685-.605-1.055 1.62-.822.997-1.616-.702-1.12-1.292-.64-.86-.543-.462.304-.219.498.46.649-.127.178-.422-.827-.605.342-.372-.266-.902-.627-.583-.505-.49-.979-.186-.74.203-.477.405v-.44l-1.474-.405-1.147-.862-.611.63-.236-.042-.472.386.152.824-.259.725-.621-.186-.606.13-.728.071-1.657-.193-.872-.275-1.06.117-.757-.366.536-.613-3.56-.595-3.251.422-.17.69-.333.04-.007-1.536-.424-.12-.15.344-.743.178-.71-.267-1.165-.585-.753-.02-.614.33-.248.486.783.21-1.585.461-.284.232-1.687.457-1.492.26-.875.536.12-.696.672-.733.75-.135.404-.5 1.71-.268.362-.424 1.434-.723.162-.414 1.093-.415 1.25-.297.435-.618 1.9-.855.263-.546-.575-.443-.064-.178.713-.048.122-.377-.579-.152-.106-.794-.672.059-.312-1.173-.952.13-2.052-.534-.117.155-.684-.231-.457.104-1.134-.063-.578.099-.264.379-1.114.213-.687-.056 1.116-1.213-1.078-.068-1.048-.084-.274-.133-1.255-.096-.285-.064.807-.19.748-.329.627-.2-.436-.489-.56-.06-1.61-.395-1.47.315-.71.224-.754.758-.368.236-.652.598-.06.438.205.109.04.447-.111.212-.614.017-1.137-.017-.834.287.728.516v.199l-1.109-.329-.614.084-.266.24-.393.233-.45-.063-.651.081-.304-.13.476-.445-.162-.246-.88.188-.338.315-.702-.241-1.048.468-.588-.046-.45.114.784.537-2.014.252-.322.208-1.829.155-.492.4-.525.157-.847.272-.55.458-.612-.137-.373-.069-.22.13.22.208-.094.232h-.444l-.274.305.312.081.03.38-.18.055-.5-.114h-.43l.243.328.467.074.446.162.127.28-.974.056.634.379.097.137.446.417-.335.486-.119.216-.246-.099-.822-.203-.766.455-.419-.026h-1.425l-2.225.25-1.732.239-.333.686.378.733-.172.608 1.174.79.832.212.5.432.074.638-.419.293-1.24-.443-1.033-.676-1.479-.433-1.299-.117-.357-.384-.695-.002-.645.516.792.14-.079.315.827.318.163.313-1.363-.206-.634-.17-.763.457.867 1.043 1.469.473.307.318.48.328-.424.216-1.789-.847-1.415.013-.487-.125-.003-.714-.375-.402.52-.87.2-.803-.451-.824h-.612l.102.61-.378 1.142-1.456.666-.229.387-.408.376 1.375 1.75.096.498-.743 1.613.053.602.01.992 1.058.023 1.497-.364 1.225.45 1.395.715.338 1.027-.586.593.02.422 1.423.778-1.453-.114-.591-.824.185-1.29-1.335-1.012-1.988.535.269 2.026-1.155 1.16v.437l-1.796 1.094-.469.788-1.162-.33-1.311.175-.779-.35-.545.06-.546-.18.239-.654.324.038.538.443.71-.328.576.493.366-.3.639.01-.12-.47.665-.275.142-.592.259-.097.145-.404.832-.44.289-.349-.107-.498.213-.68.358-.249-1.134-1.136-.22-1.328.207-.714-.19-.924.45-1.1-.077-.507-1.106-1.068-.132-.25.827-.752.264-.62.147-1.465-1.491-.537-1.451-.018-1.375-.073-1.675 3.107-1.628.916-.353.587.32.55.462.012-.155 1.035-.076.613-.373.374-.069.509 1.662.674.533 1.07.677.29-.112.814-.692.47-1.568-1.248-.916-.412-1.742-.712-1.15-.486-1.425-.58-3.549-.318-.487-.526-1.2-.608-.733.069.046.694.654.326.388.292 1.05.203.221.842.601.796-.106.45-.718.138-.52.132v.572l-.434.066-.64-.295.369-.547-1.02-.57-1.753.975-1.337-.071-1.068.145-.981.806-1.066-.01-.842-.278-.079-.2.964-.082-.215-.476.416-.696-1.76.516-.247.73-.162.015-.414-.361-2.625.646-.546.417-.958.455-.198.265-1.297.305-.246 1.21-.723.412-1.704-.02-.574-.727-.459-.341-.086-.669.5-.252.827-.307.956.14-.66-.95-.248-.53-.545-.242-.977.015-.771.05-1.04-.25-.056.136.807.588.027 1.2-.578 1.358.733.08.188.19.096.585-.04.59-.256.437-.206.435-.454-.147-.18.01-.2-.392-.88-.203-.82-.056-.66.63-1.172.387-.662.534-.537.511-.03.392.593.786.264.72-.817.218-.73-.313-.465-.236-.875-.072-.47-.236-1.004-.646-.784.727.383.748.581.384.87.155-.073.692-.68.27-.482-.214-.827-.211-.117-.257-.342-.275-.728-.14-.591-.206-.082-.707-.21-.516-.27-.93.361-.377-.51-1.193-.974-.435-.342-.295-.718-.422-.548-.633-.457-.422 1.614.753 1.362.328 1.306.442 2.037.48 2.055.27 1.882-.518 1.705-1.198-.01-.649-.287-.89-.665-.42-.753-.6-.627-.132-.59-.486-.548-.068-3.047-1.724-1.494-.382-.431.11-.505-.37-.916.23-.708-.168-.809-.033-.284-.326 1.088-.343-1.443-.501-.45.615-1.59-.485-.53.31-.325-.455-.687-.568.883.232.71-.422.794-.222-.789-.77-1.192-.219-.578-.379-1.05 1.112-.143-.85.388-.208-.076-.395-.938-.216-.482.405.045.414-.791.895-.089-1.281-1.956 1.856-.269-.432.693-.77.647-.619.205-.257-.357-.241-.708.575-.918-.117-.229.5.061.194-.18.155-.505-.305-.87.953.14.425-.272.323-.342-.508.05-.565.488-.514.281-.427-.352-.089-.391.415h-.766l-.282.109-.05.25.603.772h-.56l-.974.018.728.654-.614-.077-.366-.035-.322-.387-.553.092.462.455-.13.74-.317-.214-.164-.498-.579.19-.264-.882-1.136.313.145.793-.566.084-.244.527-.608-.341-.561.275-.67.882.822-.058.175.46.107.346h-.224l-.43-.204-.24.28-.75-.381-.53.381.304-1.073-1 .8-.585.446-.688.86-1.113.526-.48.483 2.796-1.198.324.12.442-.234.36-.234.444.175-.117.69.069.21h-.432l-.324-.348-.429.43-.627.371-.263.776-.477.404-.366.712-1.045 1.214.008.335-.134.499h-.873l-.058.94-.236.463.121.667-.804.114-.137.158-.763.13.728.806-.203.32-.198-.147-1.454.694-.235.455-.52.28-.373.834-.708-.557-.345.153.251.745-.51.12-.474.302-1.025.478.687.351-1.11.02-.688.458-.634.298.114.46-.794-.03-.35.577.497.65-.152.481.157.201-.457.476.165.417-.096.786.67.21.918-.345.23.402-.669.539-.517-.137-.44.386-.096.766 1.416-.018-.325.516-.538.404 1.033.952 1.839.523 2.407-1.782.9-.191.325-.941.518.71.332 1.078.546.936.461 1.34.65 1.17.266.979.365.592.02 1.094 1.419-.163.07-.623.401-.422.683-.198.799.12.337-.611.46.19.864-1.614-.598.465-.018-.903.441-2.352 1.363-.649.302-.717.763-1.055-1.225-1.36-.916-.25-.155-1.46.48-1.264.342-.997.614-.595.363-.826 1.76-.898 1.99-1.495-.282-.766.644-1.536.842-.671.865-.11 1.192.008 1.459.872-.188 1.013-.398.007-.688 1.229-.943.643-1.17.773-.281.532-.9.44-.764 1.134.228.437.132.9.327.974-.439 1.829 1.205.48.784.42 1.416.308 2.27-.526 2.306-.423 1.268-1.208-.127.908.822.845 1.13.249-1.003.208-1.489.888-1.017.104-1.233-.229-2.89.486-.786.748.27.824.334.379.83.132-.335.908-.051 1.182-1.27-.05-.808-1.132-1.245.577-.515 1.035-.322.486.162.811.14 1.963-.421.707-.214.372-.717-.588-.637.582-.708.367-.611-.809-2.831.809-2.01.686-.367.295-.875-.58.114-.747-1.147.305-1.978.916-.145-.57-.92-.183-1.089-1.503 1.588.114-.457-.806-.593-.076.363-.806.821-.44-.61-.616-.041-.898.134-1.116-.485-.015-.41.938h-.807l.058.572-.746-.379-.685 1.389.53 2.157.422 1.187-.033.356.378.758-.622.87-.89-.488-.974.155-.363.402-1.301.038-.45.249-.088.653-.609.039-.266-.133-.327.44-.51.73-.153.649-.964.882-1.357.516-.456.133-.33 1.213-.218.404-1.378.315-.583.87-.812-.005-.814-.55-.637-.07-.109.567.29.534-.117.847-1.13-.056-.25.045-.533-.43-.462.006-1.25.162-.353.58.152.806 1.72.557.675.189.845.424.522 1.13.847.488.006 1.368-.234 1.808-.555 1.493-7.093-.285-1.055-.384-.776.618-.911.305.563 1.142-.03 1.142.121.979-1.063 3.169.698.64.282.835-.11 1.37.995.25 1.032-.204.688.054 1.57 1.492.307-.422.746-.035.532-.285.954-.188 1.71-.074.57-.432 1.398-.977.094-.636.957-.997-.175-.834.195-1.063.865-.877.474-.786 2.775-1.335.018-1.066.2-.875.868-.412 1.634.23 1.253.401 1.248-.86 1.164-.46 1.31-.796 1.592 1.063 1.099 1.824 1.491 1.24 1.855 1.059 1.433.986.87.713.398 1.39-.322.964.203.667.753-1.307.642-.537-.593-1.015.256-.592.548-.122 1.329.552.086-.336-1.702-1.376-1.446-1.249-.37.036-1.187-.595-.822-1.478-1.817-1.859.02-1.304 1.396-.842.46.938.993.422 1.147 1.821 1.032.557.42.42 2.944 1.383.457.745-.383 1.93 1.04 1.379.553.422.294 1.045.814-.017 1.167.422-1.377.114.269 1.091.121.595.906.422.847.46-.23-1.301.897-.041-.59-.516.088-.32.751.172.556-.216.09-.61-.512-.448-.535.064-.535-.026.421-.686-1.053-1.46.01-.417.353-.112.804.422.535-.104.018-.77.535-.278.482.32.975-.48 1.626.786 1.205-.748.938-.064.277-.623-.45-.272-.765-1.955 1.3-1.389.65-1.737.667-.768 1.723-2.281 1.436-.211.134.844 2.105.305-1.722.962 1.301.595.059.997 4.015-1.035-1.301-.346-1.053-1.056 1.626-1.035 4.016-.824-1.606.939.497.73-1.816 1.61 5.758 3.951.495 1.34-2.037 1.234-8.125-1.498-3.32 1.244-2.831.152-.652.997-2.984 1.19.538.364.152 2.569 2.141 1.383 1.269 1.002 2.25-.966 1.76 1.035 2.545-.997 1.988-.02-.439 3.262-2.333 5.061-4.371-.463-1.938.773-8.917-2.823-2.886 1.478.312 1.16-.982.96-4.586-1.662-.416-1.035-4.506-1.038-2.047-1.434c.005-.003.64-.712.642-.715.003-.002.614-.684.62-.686-.029-.51-.054-1.013-.082-1.519l-.069-1.32c-.454-.2-.908-.401-1.362-.605-.505.127-1.012.252-1.517.377l-1.425-.112-7.976.783-4.523 2.347-4.906-1.14-1.415 2.648-1.971.939-1.702 2.34v1.975l-1.53 2.129-2.828 1.744-2.43 3.566L198 120.33l1.012 3.555-.938 4.715.388 2.869 4.398 5.378 1.22 2.108 6.053 3.77 3.818-.835 3.48.499 5.852-2.187 2.831.231 1.915 2.434 3.247-.489 1.533.929-1.127 6.444 4.092 5.414 1.626 4.27.594 4.084-2.7 7.937 3.311 7.098.85 6.315 3.904 7.507-.335.422-.251.527.431.864.259.778.535.326.69.557.553.15.71-.478.452-.287.964.124.441-.247 1.476-.531 1.695.364.497-.209.825-.17-.02-.41 1.412-.028 1.614-.994 2.316-2.383 1.778-2.449.913-1.033.898-1.03.355-2.66-.72-.282 1.499-1.08 1.786-.738.637-.608.063-1.378.099-.962-.365-1.676-.523-1.139-.276-.852.487-.127.936-1.297.994-.318.619-.956 1.152-.885 1.69-.231 1.232-1.285.99-1.701-.29-1.526-.233-4.445-.746-.57-.132-.626-.345-.643-.076-.834-.15-.618.256-1.287-.715-.783 1.707-5.053.952-.415.43-.318 4.341-4.504 1.537-.846 2.534-2.391 1.492-2.118.566-1.432 1.966-3.294.525-2.357-.003-1.015-.436-.231-.728.587-2.506.47-1.388.14-.68.339-1.28.137-1.409.58-.801-.188-.52-.78-.498-.331-.946-.285.193-.349.825-.277.134-.458-2.679-2.896-1.167-.54-.52-.477-.553-.54-.652-1.33-.258-1.035-1.325-1.526-.657-1.052-.144-1.661-.426-1.882-.571-.659-1.104-1.243-.076-1.01-1.9-3.596-.611-1.322-.383-.809-1.34-1.91.252-1.098.672 1.02.652 1.388.837.969h.46l.347-1.813.225 1.505s1.396 1.534 1.512 1.648c.114.117.997 1.35.997 1.35l.117.924.769 1.386 1.19.5.23.886.655.77.459 2.772 1.306.926 1.076 1.81 1.19 1.58.08.847.726 1.037-.383 1.196.845 1.385.17 1.905 1.867-.096 1.23-.768.92.076.96-.499.806-.58.931.176 1.3-1.063 3.173-.887.243-1 1.078-.46 2.265-.577.713-.01-.175-.568.614-.539 1.233.023.304-.64.538-.548.82-.422.005-.636.436-1.108.697-.328.356-.402.55-.812.672-1.284-.766-.58-.57-.907-1.73-.537-.94-1.025-.545-2.235-2.186 2.441-1.403.478-1.154-.04-.784.417-.604-.448-.18-.819.193-1.238-.345-.428-.956 1.282-.69-1.399.088-.282-.38-.809-1.235-1.215-.53-1.178-.62-1.632 1.198-.944.388.211.9-.035 1.748 3.1 1.19.384.695.524s1.38.67 1.43.788c.054.114 1.515.34 1.515.34l1.393-.806 1.23.232.457 1.709 5.152.793.685-.157 2.313.295.342-.445.784.145.56.162.922-.076.604-.104.626-.242.406.547.591.707.269.885.578.287.759.339 1.19 1.1.547-.053.769-.307.099.437-.485.41-1.314.203 1.352 1.566 1.403.677 1.076-.618.281-.722-.109-.374.51-.298.259 1.028.424.694-.356.809.7 4.776 1.348 3.222.958 2.823.614.808.462.695.497 1.195-.02.804 1.238 2.052.616-.09.589-.716 1.202-1.206.025-.768.774-.41.147-1.662.47-1.02.121-.987-.2-.987.175-1.36.48-1.07 1.032-.977 2.907-2.083 1.395-1.506 1.26-.887 1.066-1.175.069-1.05.984-.385 1.629-.025.865-.237 1.032-.498.122-.666.662.033.69 1.765.801 1.36 1.152.812.807 1.884.307 1.81-.421 1.117 1.25.562.599-.336.888-.902.22-.71 1.005 1.45.261 1.515.424 1.773.73.961-.086 1.417.18 1.259-.373 3.687.622.427 1.469 1.885.299 1.648.654 1.693 1 1.618 1.613 1.078 1.842.895-1.035-2.25.155-2.086-.305-.691-.69-.667-.119-.249-.51-.387-.614-.658-.976-.394-.761-.71-.137-.768-.348-.837-.322-.71-.873-.66 1.104-4.329-.061-.712h1l.464 1.04.918-.076 1.537 1.002.025 1.142.802.132.056.69 1.035.096.687.633-.362 1.132.408.628 1.408-1.012.304-.499.348-.691 1.205-.173 1.058-.608 1.085-1.035.251-2.218-.416-1.986-1.139-1.724-1.23-.941-1.116-1.348-.573-.908-.064-1.33.918-1.132.173-.864.906-.122.542-.547.792-.211-.036-.275.454.077.66.462.654-.462.183.27-.12.505.288 1.13.256.093.121-.996 1.383-.657 1.5-.577 1.427-.987.723.026 1.42-.272 1.736-.308.378-.854 1.065-.341.049-.654 1.283-.552.599-.872.609-.242-.148-.836.32-.158-.172-.633 1.232-.74.272-.895.827-.476.269-1.053.134-.821.63-.463-.536-.155-.746-.27-.459-.267 1.36-.671-.071-.32-.972-.497-.89-.737.416-.277.806.5.652-.032-1.42-1.353.099-.659-.822-1.572-1.147-.803-.012-1.012.893-.372.345-.516.385-.074.414-.732 2.163-.537.084-.241-.83-.583-.682-.045-.58-.473-.693.8-1.466.352-.404-.59.051-.735-1.593-.237-.269-.814.492-.75.614.003.868-.216.055-.9 1.246-.125 1.225-1.096.677-.514.632.45-.084.84-.796.925.21.325-.459 1.005.957-.354 1.27-1.035 1.746-.384 1.136.346.46.885-.88.898.227.786.652.328.079-.356.916.163.304.175.507.387.307.508-.487.349-.357.152.461 1.348-.616 1.002.269.384-.046.738.546-.044 1.253-.297.976-.936.536-.27.821.13.132-.48-.31-.972-.108-1.294-2.628-3.233.25-.775.577-.077 2.011-1.32.46-1.574 1.438-1.396 1.392-.829 1.492.844 2.983-1.876 1.408-1.623 2.39-2.874 1.577-2.235.921-1.658.368-2.747.505-1.627.502-.68v-.612l-.314-1.127.39-.234-.48-.633-.783-.651-.335-.509-1.788-.221-.01.34-.508.194-.634.656-.378-.193.023-.465-.117-.822-.804.923-.155-1.325-1.47-.035-.523-.305.195-.535.779-.409.22-.437 1.42-.768.95-.695.246-.536 1.917-1.658 1.12-.835.418-.745 1.25-.826.02-.483 1.726-.81 3.226.077.939.277.137-.236 1.068.216 1.243-.173.634.084.55-.628 1-.231 1.19.577.768-.346.383.384.5.425-.961.348.048.366.913-.29 1.192.038.553-.17.918-.02.373-.234.967-.092-.918-.854.41-1.058 1.789-1.272.956-.554.145-.605.545-.583 1.291.013 1.307-.348.385.506.939-.364-.596 1.475.923.193-.578.575 1.151-.323 1.193-1.254s1.679-.592 1.669-.714c-.013-.12-.094-1.29-.094-1.29l1.192-.46 1.383.076.076.692-.962.04-.405.761-.208 1.111.345.285-.728.293-.117.557-1.073.343-.896.437-1.052 1.17-2.39 2.208-1.119.96-.768.347-.231.465-1.21-.066.02 1.027-.461.545-1 2.034v1.58l.31 3.12.5 1.271.113 1.966.345.941.962-.786.786-.846.436-.59.112-1.02.878-.593.959-.193-.117-1.091.325-.638.918-.552.467-.064 1.083-.203.203-.351-.431-.934.372-1.131.543-.443.65.059.345-.117-.366-.799-.449-.437.472-1.084.3-.564-1.162-.069-.28-.168.128-1.172.69-.62.4-.532.437-.872.291-.845.69-.117.688.145.495.23 1.045-1.412.5.152.025 1.145 1.205-.69.614-.416 1.151-.08 1.768.31.655.761.19-.722 3.338-1.88 1.005-.894 2.034-.575 2.23-1.066.076-.399.442.282.593.219 1.639.196.535-.605-.342-.947-.647-.93-.061-.41-.82-.86-.763-.477-.053-.39-.835.067-.604-.349.338-.61.943.247.69.633 1.472-.097 1.72-.882.365-.672.175-.302-.794-.89.484-.206.477-.423.386-.18.614.079-.482.752.327.555.424.422 1.047-.056.68-.175 1.269.503.268.809.728.648 1.281.46.373.316.46-.231.639.353.71-.15-.573-.71.629.153.134-.633.076-.593-.266-.691.15-.425 1.704.577-.322-.694 1.012.292.142-.6.906-.267-1.248-.778z"/>
            <path fill="#616161" d="M261 100.942L261.862 101.453 263.251 100.817 263.251 99.956 264 99.547 261.953 100.204zM249 100.451L250.2 100.871 251.085 101.038 253 100.406 252.115 100.34 250.323 100.34 249.678 99.962zM240 96.311L239.423 97.454 239.423 98.528 239.046 98.776 238.364 98.228 236 96.832 236.679 96.311 237.182 96.224 237.996 96.391 238.881 96.224zM232.002 88.075L232.189 89.143 232.095 90.25 231.688 90.925 231.282 90.748 230.811 89.725 230.811 89.302 231.054 88.888zM230.244 92.354L231 92.279 231.351 92.148 232.069 92 232.608 92.177 232.756 92.576 232.666 93.346 232.644 94.058 232.506 94.458 231.708 94.789 231.441 94.955 231.018 95 230.793 94.621 230.815 93.5zM222.827 93.742L223.234 93.192 224.173 93.004 224.099 93.742 223.499 93.996zM212.71 77L213.098 76.132 213.646 75.551 214.346 74.97 215.326 74.97 215.775 74.779 216.066 74.398 215.399 74.51 214.689 74.398 213.992 74.178 213.74 74.01 213.364 74.15 212.778 73.807 213.053 73.556 214.167 72.954 214.288 72.675 213.982 72.426 213.528 72.178 213.707 71.838 213.907 71.558 214 71.119 214.308 71.162 214.601 71.289 215.621 71.104 215.654 70.325 215.811 69.754 215.573 69.525 215.073 69.223 215.184 68.657 215.263 68.129 215.02 68.129 214.389 68.528 213.798 68.637 212.995 68.444 213.109 68.129 213.492 67.305 213.391 66.756 213.356 66.244 213.202 66.477 212.992 67.036 212.614 67.259 212.318 67.198 212.194 66.764 212.081 66.475 211.167 66.797 211.472 66.505 212.235 65.995 211.914 65.731 211.596 65.569 211.548 65.307 212.134 64.51 212.023 64.353 211.472 64.193 211 63.799 211.091 63.584 211.472 63.505 211.871 63.871 212.167 63.84 212.194 63.508 212.222 63.317 212.765 62.627 213.202 61.602 213.566 61.536 214.558 61.637 214.957 61.515 215.528 61 215.553 61.33 215.336 61.766 214.917 62.421 214.366 62.838 214.23 63.201 214.619 63.299 215.035 63.193 215.808 63.122 216.788 63.178 217.184 63.376 216.881 64.457 216.396 65.454 215.53 66.251 215.737 66.475 216.497 66.421 216.899 66.665 217.5 66.997 217.755 67.317 217.99 68.246 218.424 68.81 218.856 69 219.366 69.662 219.366 70.195 220.003 71.162 220.02 71.871 220.275 72.127 220.495 72.124 220.649 71.947 221.49 72.003 222 72.614 221.763 73.145 220.934 73.86 220.598 74.398 220.838 74.624 221.434 74.673 221.015 75.147 220.136 75.533 218.843 75.551 218.154 75.909 217.237 75.449 216.879 75.827 215.987 75.731 215.225 75.909 215.184 76.081 214.614 76.655 214.152 76.32 213.659 76.464zM209.992 63.179L210.16 62.483 211.008 61.821 211.008 62.3 210.507 62.952zM218.19 59.307L218.126 58.596 218.718 57.693 218.874 58.146 218.607 58.926z"/>
            <path fill="#616161" d="M210.853 68L212 69.37 211.883 69.719 211.425 70.019 210.921 70.382 211.124 71.313 211.242 73.002 210.941 73.801 210.31 73.869 209.816 73.869 209.001 74.334 207.935 75 206.756 75 206 74.28 206.017 74.026 206.704 73.571 206.895 72.916 207.372 72.474 207.333 72.15 206.482 71.327 206.609 70.983 206.46 69.941 207.274 70.125 207.644 70.155 207.788 69.922 208.73 69.581 208.803 69.348 208.214 68.696 208.414 68.357 209.001 68.282 209.623 68.441zM235.549 66.04L234.851 66.224 234.41 66.766 234.629 67.427 235.142 67.874 234.713 68.278 235.12 68.96 235.549 68.831 236.173 67.984 236.59 66.04 236.071 66.403zM242.98 64.496L243.363 62.912 244.02 62.504 243.934 63.509 243.501 64.1zM247.708 62.167L247.975 61.007 248.317 60.833 249.292 61.123 248.452 61.498zM283.1 40.49L284.149 40.067 285 39.506 284.68 38.921 283.706 38.51 282.449 38.768 282 39.479 282.286 40.094zM293.997 35.85L292.253 34.276 291.348 32.585 291.348 31.736 292.155 31.181 292.326 30.225 292.823 29.981 293.665 28.727 294.281 28.478 294.281 27.692 295.11 27.545 295.439 26.973 295.437 26.492 296.128 26.314 296.651 26.07 298.166 25.508 299.008 24.771 302.757 23.308 305.479 22.543 308.51 21.338 309 20.6 308.776 20.242 307.929 20 305.911 20.445 304.836 21.01 304.268 21.264 302.752 21.505 301.579 21.894 300.732 21.917 299.852 21.627 298.558 22.154 297.849 22.294 296.985 22.632 296.01 22.782 295.057 23.387 294.072 24 293.826 24.379 292.974 24.381 292.444 24.628 292.823 25.498 291.951 26.108 291.886 26.431 291.572 26.952 291.056 27.402 290.106 27.715 289.905 28.061 290.576 28.58 290.094 28.834 289.981 29.177 288.842 29.752 288.666 30.225 287.684 30.482 288.35 31.285 287.593 32.053 286.284 32.521 286 32.895 286.467 33.61 287.289 33.663 287.515 34.622 287.993 34.805 288.066 33.816 288.774 34.23 289.131 34.68 289.031 34.929 289.878 35.725 291.823 36zM310.466 30.11L310.182 29.508 310.829 28.89 312.818 29.564zM321.906 30.881L322.731 30.119 323.082 30.383 323.094 30.881zM363.12 27.855L364.023 27.133 364.479 26.857 365.88 27.402 365.502 27.855 364.479 28.143 363.807 28.143zM401 29.728L402.218 28.648 403.239 28.549 404.849 29.512 405 30.451 404.003 30.451 402.093 30.229zM408 25.455L408 24.93 408.464 24.261 409.289 24.858 410.258 24.948 410.883 24.858 411.715 25.509 412.418 25.131 413.583 25.509 414 25.998 413.59 26.412 412.013 26.739 410.609 26.664 409.611 26.319zM399.654 27.502L400.884 27.046 401.346 27.288 401.244 27.954 400.425 27.954zM396.979 25.611L396 24.613 396.489 23.397 397.799 22.163 398.454 22 400.441 23.371 400.879 23.229 401.141 22.664 401.766 22.507 402.666 22.754 404.122 23.221 405.387 23.308 406 23.807 406 24.282 405.726 24.458 405.498 25.136 405.286 25.611 404.122 25.533 403.41 25.128 403.116 24.692 403.173 24.051 402.629 23.807 402.52 24.138 402.888 25.611 402.349 25.611 400.394 25.921 399.744 25.961 399.201 25.685 398.42 25.961 397.337 26zM451 36.359L451.162 35.547 452.768 34.755 454.24 34.641 456 35.498 455.699 35.952 454.339 36.359 452.896 36.312 452.236 35.958 451.563 36.359z"/>
            <g transform="translate(463 51)">
                <mask id="prefix__b" fill="#fff">
                    <use xlink:href="#prefix__a"/>
                </mask>
                <path fill="#616161" d="M0.361 1.874L1.944 1.384 3.904 1.874 4.281 2.174 3.784 2.534 3.088 2.534 2.296 2.239 1.669 2.214z" mask="url(#prefix__b)"/>
            </g>
            <path fill="#616161" d="M406 205s.256 1.059.374 1.446c.119.39.17 1.368.17 1.368l1.548 2.186.644-.564.258-.718.67.154.336-1.528-.052-2.159-1.96.5L406 205zM434 212.954L434.355 211.594 437.075 209.452 439.694 207.825 440.784 206.081 441.465 205 442.761 205.497 443.823 205.194 444 206.22 443.512 207.053 442.083 209.019 440.166 210.543 439.488 211.846 438.604 213.287 436.893 214zM443 196L444.864 201.139 443.804 202.292 445.526 203.809 445.153 205.834 446.328 206 447.763 204.033 448.164 202.714 449.024 202.433 450 200.55 448.739 200.605 447.476 200.496 446.127 198.725z"/>
            <g transform="translate(113 132)">
                <mask id="prefix__d" fill="#fff">
                    <use xlink:href="#prefix__c"/>
                </mask>
                <path fill="#616161" d="M20.878 96.498L18.372 95.181 17.433 94.401 17.069 93.818 16.798 93.8 16.634 93.485 17.179 93.12 16.455 92.551 15.323 92.551 15.441 91.855 15.817 91.855 16.68 92.018 16.132 91.109 15.861 89 16.798 88.114 17.361 87.852 17.701 86.705 18.533 85.761 20.069 84.494 20.3 83.232 18.677 82.704 17.95 81.636 18.101 80.635 19.304 79.902 20.241 79.701 20.561 79.011 20.914 77.752 21.162 76.929 21.856 76.66 21.777 76.371 21.836 75.855 22.558 76.284 23.18 75.855 23.08 75.282 22.742 75.152 22.181 75.508 21.459 75.168 21.255 74.19 21.093 73.261 21.198 72.982 22.117 73.17 23.18 73.292 24.199 73.375 24.787 72.781 24.641 71.956 24.903 71.55 25.151 71.251 24.846 70.631 25.307 70.111 25.945 70.111 27.708 70.078 29.744 69.624 30.857 69.083 31.479 68.136 32.345 67.014 32.345 66.461 31.794 66.151 31.349 65.742 31.564 65.031 31.551 64.554 30.839 64.255 29.851 63.843 29.913 63.366 30.381 63.29 30.898 63.539 31.689 63.623 32.89 64.074 33.589 63.97 34.518 64.024 35.557 63.709 36.599 62.498 37.659 61.495 38.192 60.295 38.473 59.345 39.118 58.396 39.285 57.538 40.04 57.256 40.04 57.843 39.126 59.262 40.314 58.35 41.066 57.068 41.773 55.723 42.682 55.04 43.066 54.23 43.03 52.92 42.953 51.6 43.491 50.303 44.236 49.917 45.142 49.067 46.849 48.321 48.025 47.681 48.588 47.145 50.759 47.171 51.918 46.8 51.918 46.194 53.068 45.907 53.068 45.003 53.741 44.158 54.161 43.338 54.161 42.696 54.755 42.264 54.934 40.974 55.205 40.302 55.623 39.995 55.623 38.926 55.899 37.763 55.771 35.278 55.899 34.24 56.211 33.664 55.971 33.448 56.201 33.077 57.013 33.334 57.417 32.821 58.41 30.777 59.299 30.376 60.3 29.364 61.124 27.82 61.308 25.967 60.963 24.439 60.464 23.33 59.399 23.309 58.372 23.017 57.527 22.494 56.608 21.652 55.272 20.636 53.283 20.37 52.346 20.525 50.48 19.956 50.208 19.87 48.501 20.705 48.762 19.469 47.369 18.352 45.692 17.631 44.3 17.397 43.831 17.841 43.662 18.595 43.24 18.466 42.853 18.837 42.385 19.304 42.19 18.867 43.181 17.702 43.317 17.372 42.003 16.651 40.682 16.684 40.201 17.443 39.843 17.689 39.577 17.247 39.669 16.651 40.429 16.562 41.494 15.019 41.159 14.204 39.907 13.072 39.479 11.15 38.076 9.591 36.717 9.272 35.355 8.797 33.389 8.942 32.798 8.538 32.17 8.759 30.839 7.723 30.261 7.419 29.93 6.535 28.871 5.86 27.772 5.416 26.495 5.373 26.843 4.311 24.903 3.591 24.711 2.997 25.077 2.875 24.549 2.486 21.459 3.448 19.278 2.692 18.27 2.997 17.345 2.664 17.11 1.77 16.665 1.471 15.984 1.405 15.175 0.722 14.798 1.552 13.956 1.867 13.032 2.557 13.577 4.215 12.63 4.553 12.077 3.994 12.656 2.301 12.484 1.402 12.801 1.151 13.411 0.722 13.119 0.346 12.077 0.829 11.137 1.222 10.513 1.694 9.325 2.07 9.325 2.486 8.473 2.019 7.502 3.103 7.502 3.794 6.75 4.56 5.736 5.829 5.452 5.898 4.871 5.233 4.359 4.583 3.406 4.195 3.245 4.913 3.888 5.215 3.621 5.802 3.611 6.238 4.392 7.149 5.091 7.713 5.07 8.558 5.07 9.277 4.976 9.942 5.303 11.287 5.516 11.597 4.433 13.133 3.69 13.364 3.276 14.1 3.015 14.64 2.866 15.072 1.829 15.402 1.681 16.222 1.102 16.999 1.102 17.478 0.368 18.108 0.67 18.824 0.38 19.441 1.407 20.207 1.77 20.243 1.832 20.629 1.192 21.048 0.368 21.611 0.004 22.195 0.496 23.977 0.089 24.32 1.755 25.589 3.15 27.394 4.858 31.509 6.64 34.085 6.499 34.938 7.039 35.862 9.934 37.583 12.686 39.083 13.191 39.852 14.496 41.013 14.665 43.32 14.596 45.508 14.074 47.46 14.586 48.077 14.094 48.722 14.064 50.41 13.523 52.885 13.211 53.837 13.152 54.616 12.599 55.355 13.091 56.906 12.609 57.848 12.671 59.036 12.599 61.155 12.384 61.546 12.302 62.331 11.913 63.3 11.457 64.971 10.538 67.212 9.937 67.618 10.049 68.392 10.134 68.903 10.103 69.684 10.554 70.718 10.134 71.695 9.875 72.436 9.696 73.205 9.701 73.959 9.934 74.332 9.586 74.736 9.074 75.868 9.059 76.97 9.645 77.003 9.934 76.137 9.934 74.909 10.224 74.678 10.866 73.947 11.063 74.678 11.37 74.832 11.15 75.251 11.035 76.345 10.679 77.016 10.741 77.643 10.485 78.209 10.541 78.841 10.866 79.211 10.513 79.386 10.572 80.161 10.523 80.366 9.904 80.534 9.893 80.889 10.052 81.278 9.857 81.498 9.397 81.242 9.182 81.052 9.625 80.349 9.76 80.189 9.742 79.645 9.489 79.328 9.2 79.219 8.946 79.366 9.159 79.714 9.468 80.059 9.415 80.417 9.177 80.427 8.836 80.468 8.79 80.719 8.483 80.922 8.053 81.135 7.994 81.346 8.109 81.77 7.607 82.08 7.354 82.392 7.336 82.714 7.551 82.75 7.628 82.326 7.937 82.212 8.153 82.384 8.334 82.75 8.675 82.674 9.102 82.615 9.253 82.94 9.248 83.225 8.964 83.379 8.739 83.682 8.69 84.154 8.752 84.306 9.12 84.27 9.568 84.192 9.904 84.268 10.226 84.517 10.065 84.804 9.681 84.58 9.297 84.441 9.066 84.583 8.79 84.783 8.283 84.639 7.961 84.687 7.518 84.966 7.415 85.357 7.551 85.441 7.909 85.933 8.17 85.882 8.424 85.517 8.675 85.192 9.082 85.192 9.217 85.634 9.005 85.862 8.429 86.134 8.306 86.357 7.92 86.761 7.602 87.091 7.651 87.345 7.861 87.441 8.191 87.345 8.17 87.763 8.501 87.824 8.713 87.614 8.616 87.19 8.752 86.728 9.141 86.555 9.297 86.735 9.548 87.114 9.153 87.527 8.921 88.629 8.593 88.984 8.498 89.266 8.14 89.464 8.263 89.634 8.091 90.033 8.109 90.238 8.306 90.205 8.598 89.957 8.967 89.919 9.12 90.16 9.471 90.066 9.799 89.957 9.909 90.216 9.732 90.497 9.123 91.099 9.548 91.035 9.878 90.957 10.129 91.406 10.265 91.226 10.362 90.728 10.73 90.784 11.176 91.015 11.158 91.495 10.825 91.713 10.377 91.802 9.765 91.812 9.537 92.084 9.54 92.348 9.86 92.713 10.167 92.515 10.6 92.249 11.04 92.013 11.854 92.013 12.474 92.147 12.599 92.363 12.484 92.533 11.936 92.548 11.655 92.746 11.127 92.866 10.976 92.764 10.666 92.736 10.375 92.952 10.254 93.224 10.039 93.604 10.574 93.668 10.692 93.32 11.214 93.13 11.795 93.13 12.241 92.937 12.842 92.726 12.945 92.965 12.891 93.343 12.361 93.604 11.739 93.429 11.411 93.675 11.294 94.143 11.186 94.3 10.518 94.15 9.904 93.97 9.64 94.127 9.735 94.412 10.177 94.942 10.595 94.993 10.961 94.917 11.399 95.259 11.857 95.541 12.126 95.262 11.788 95.003 11.642 94.589 12.008 94.417 12.648 94.551 13.191 94.282 13.321 93.711 13.249 93.282 13.444 92.878 14.217 92.437 14.819 92.361 14.844 92.574 14.619 92.906 13.895 93.378 13.982 93.714 14.261 93.965 14.76 93.82 15.149 93.724 15.29 93.912 15.277 94.13 14.885 94.269 14.568 94.488 14.709 94.952 14.773 95.287 14.465 95.427 14.284 95.064 14.074 94.343 13.764 94.407 13.692 94.61 13.813 95.15 13.879 95.432 13.608 95.32 13.178 94.919 12.835 94.856 12.707 95.051 12.899 95.529 12.648 95.589 12.289 95.681 12.164 95.922 12.231 96.158 12.745 96.166 12.958 95.993 13.27 96.189 13.47 96.498 13.649 97.1 13.785 97.272 13.987 96.704 13.987 96.262 14.317 96.11 14.445 96.399 14.742 97.191 15.175 97.476 15.597 97.476 15.459 97.186 15.615 96.859 15.948 97.021 16.757 97.839 17.128 98.001 17.243 97.76 17.01 97.453 16.603 96.991 16.816 96.78 17.409 97.074 18.203 97.234 18.446 97.014 18.503 96.78 19.086 97.024 19.547 96.684 20.192 96.681z" mask="url(#prefix__d)"/>
            </g>
            <path fill="#616161" d="M117.847 136.416l-1.531-.565h-.763l-1.072.695-.946.328-1.503-.7-1.56-1.886-.235-.593.426-1.774.119-1.797.21-1.762-1.356-.743-.75-.349-1.536.143-1.212.438-1.316-.11-.656.08-.241-.408.405-.657.112-1.461.233-.698.477-.595.383-1.334.032-1.15.576-.642.236-.962-1.017-.069-.725-.069-1.67.227-1.045.557-.258.868v.517l-.348.382v.575l-.522.443-.363.446-.973-.146-3.042.662-.915-.491-.816-.277-.599-1.594s-.808-.837-1.031-1.092c-.221-.257-.54-1.077-.54-1.077s-.19-2.27-.19-2.423c.002-.153 0-1.736 0-1.736l.524-1.387-.223-.484-.727-1.056.915-.848.02-.863.687-.423.428-.659.961-.089.664-.512.302-.745h.804l.57-.507.66.056.27-.14.64.499.519.066.261-.252.238-.313.624.718.49.298 1.036-.041.134-.402 1.149.804.256-.076-.543-.583-.258-.723.068-.336.804-.232h1.004l.372-.371.208.145.096.361.502.064.812-.206.405-.059.756.27.365.39.182.333.2.214.442-.09.588-.486.461-.185.436.3 1.159 1.3.17.35-.173.929.307.501.058.654.4.537.176 1.024.41.26.533.712.096.272.565.392.368-.099.162-.534.297-.632.16-.618-.391-1.775-.33-.707-.15-.323-.042-.599-.57-1.038-.28-1.054-.048-.756.196-.754.545-.997.78-.958.548-.277.48-.183.225-.453.7-.705.527-.072.408-.096.284-.553.763-.486.821-.29-.284-.682.05-.466.265.002.4.194.49-.135.532-.5v-.218l-.482-.092-.324-.257.187-.142.145-.357-.249-.379-.532-.193-.142-.128.291-.468-.012-.397-.233-.255-.586-.443-.043-.272.558-.188.144-.347.005-.86.157-.626.315-.09.01.225-.195.491-.018.502.099.272.35.636.04.626-.03.683.436-.532.461-1.202v-.567l-.14-.16s-.197-.314-.195-.41c.005-.097.104-.245.104-.245l.363.344.284.058.547-.496.553-.866.008-.603v-.255l.717-.117.773-.096.794-.237.324-.186-.21-.204-1.126.163-.641-.017.38-.3 1.26-.316.672-.102.286-.568.368.283.418.05.563-.333v-.547l-.48-.298-.129-.127.29-.364.022-.545.297-.626.246-.27.426-.186.228-.18.187-.202.355-.066.34-.318.324-.474.28-.216.397.107.604.216.436-.175.966-.728 1.356-.568.512-.145.895-.774.246-.298.164.173v.293l-.213.204.066.272 1.372.204-.254.196-.98.048-.65.03-.826.79-.692.847.048.311.641.51.583-.024.781-.478.431-.492.264-.353.388-.214.81-.094 2.663-.876v-.257l-.084-.247.248-.204 1.288-.336.353-.303V83.2h-.274l-.548-.077.137-.847-.205-.186-.47.37-.215.335-.101.232-.558.516-.058.446-.487.1-.7.09-1.067-.157-.395-.17-.226-.326-.882-.51-.368-.318-.116-.376-.315-.683.198-.427.183-.502-.188-.15h-.167l-.4.219-.29.148-.192-.128.017-.239.35-.3.799-.313.443-.303.193-.492-.357-.766-.578-.2-.781.01-1.978.46-1.825.726-.568.348-1.123 1.067-.887.876-.479.26-.112-.095 1.014-.965.345-.463.048-.456.14.018.651-.458.852-.96.756-.486h.854l.177-.512.809-.837.94-.237 3.735-.18h3.607l.948-.4.598-.425.58-.601.44-.407.43-.12h.771l.654-.061.565-.341.586-.573.403-.456-.378-.198-.54-.298.33-.107.294-.163.294-.967-.51-.438-.512-.455-.413.165-.36.234-.246.038-.18-.142.223-.705-.246-.237-.446-.076h-.595l-.85.613-.357.232-.69.16-.395.313-.228-.002-.036-.413.297-.336.413-.074.35-.493h.575l.444-.105.832-.305s.354-.018.479-.13c.124-.112.147-.359.147-.359l-.31-.293-.661-.066h-.472l-.755-.613-.449.101-.365-.272-.327.127-.3.01-.326-.343-.385-.715-.665-.601-.618-.407-.969-.448-.06-.227.362-.048.388.145.413-.145.37-.507-.147-.415-.367-.16-.188-.22-.013-.602-.4-.38-.355-.328-.104-.255-.256-.29-.177-.318-.064-.211-.152-.224-.17-.247-.101-.295-.061-.194-.393-.532-.337-.45-.099-.263-.071-.244-.243-.367-.343-.57-.212-.26-.224.26-.187.58-.241.357-.312.39.114.21.114.25-.4.313-.117.206.076.504-.34.044-.19.407-.147.051-.301-.234-.302.04-.122.133-.124.38-.367.294-.63.232-.329-.018-.23-.303-.348-.239-.187-.015-.35-.558-.502-.056-.38-.142-.079-.606-.507-.466.175-.387-.261-1.222.076-.53.352-.564-.18-.217h-.311l-.39.21-.396-.324-.522-.018-.507-.069-.56-.282-.198-.479-.37-.257-.37-.468-.381-.196-.22-.436-.325-.084-.469-.262-.314-.17h-.502l-.923.402-1.02-.247-.31.102-1.053-.443-.67-.115h-.79l-.084.156-.291.315-.218.283-.036.351.15.344s.383.282.461.303c.076.02.22.247.22.247l.049.292-.304.176-.092.3-.37.469.363.483.286.672.29.522.017.654-.203.135-.35.069-.172.52-.441.664-.29.521.1.423.59.272 1.227.81.284.674.292 1.176-.081.848-.21 1.008-.647.624s-.611.422-.695.491c-.086.064-.537.486-.537.486l-.677.38-.646.104-.426.074.14.649.516.578.114.27-.055.598.076.56.175.636.131.52.365.56-.19.404-.52.603.345.263-.053.422-.522-.31-.383-.15-.218.524-.114.433-.13.066-.587-.308-.373-.163-.302-.736-.639-.486-.375-.328-.162-.474-.573-.514-.215-.4-.013-1.764-.16-.516.14-.558.08-.56-.46-.387-.644-.066-1.767-.079-.769-.079-.532-.323-.598-.351-1.012-.382-1.052-.52-.438-.56-1.06-.59-.413-.23-.652-.121-.484-.008-1.577-.677-.778.186-1.143.39-.036-.25.229-.494-.56-1.42-.49-1.1-.345-.14-.796-.03-.783-.309-.259-.71.168-1.525.342-1.013.558-1.214.177-.514.89-.45.104-.25.066-.469.101-.17.472-.178.154-.303.061-.329.375-.081-.202-.32.157-.146 1.06-.084.694-.237.3-.616-.26-.28-.915-.135-.59-.13-.294-.43-1.57-.437-.27-.199.511-.084 1.047.19 1.179.345.864.277.599.033.646-.094-.07-.751.012-.293.334-.038.655.227.747.15.4-.12.89-.967.38-.494.348-.341.223-.326-.377-.265-.847-.043h-.827l-.905-.397-.732-.555-.23-.338.23-.156h.545l.735.415 1.303.74.469.07.482-.255 1.432-1.293-.091-.176-.47-.239-.309-.173.117-.277.578-.135h.482l.428.29.23.293.467.03s.664-.153.789-.165c.121-.01.268-.105.268-.105l-.266-.445-.814-.517-.053-.193.23-.166.27.15.36.329.42.287.2.321.196.183.831-.313.763-.466.411-.427.408-.181.436-.507-.07-.529-.313-.395-.476-.42-.162-.692-.137-.097-.37-.448.157-.114h.492l.72-.128.354-.463-.43-.366-.071-.166.347-.32-.107-.22-.547-.137-.596-.142-.355-.413-.124-.31-.958-.125-.844-.232h-1.17l-.428-.043-.21.59.327.647.426.03.193.347-.218.257-.15.148-.079.427-.517.01-.235.24-.2 1.028-.305.458-.385.16-.11-.27-.149-.524-.137-.035-.301.211-.09.415.219.38.373.068.116.738-.096.224-.495.13-.327.28-.098.137-.114.028-.274-.45-.23-.293-.708-.825-.152-.526.205-.443.34-.135.124-.22-.152-.643-.13-.326-.499-.339s-.395-.397-.479-.463c-.084-.064-.596-.216-.596-.216l-.362.165-.188.476-.134.318-.294.222s-.114.203-.137.287c-.02.087-.307.655-.307.655l-.198-.313-.116-1.044-.117-.199-.154-.369.327-.178.43-.247.046-.203s-.271-.377-.395-.26c-.122.117-.68-.135-.68-.135l-.377-.19-.414.131-.311.163-.249-.038-.099-.486.12-.45.035-.184.089-.117.311.033.345-.176-.002-.239-.338-.19-.362-.204-.236-.117-.01-.36-1.001-.414-.089-.224.147-.93-.264-.318-.922-.707-.69-.145-.215-.257.114-.298.327-.092.294-.25.738-.939-.03-.145-.31-.158-.183-.246.396-.13h.583l.923.252.375-.02.644-.675 1.107-1.601.36-.647-.223-.237-.517-.066h-1.23l-.866-.247-.756-.183h-.626l-1.201.137-.867.296-.008.226.304.344-.086.295-.439-.155-.258-.023-.046.463.061.672.008 1.075.464.728.367.855-.175.88-.256.298-.51.212.285.346.116.433-.175.231-.42-.173-.464-.175-.302.348-.132.568.053.387.517.364-.164.38-.325.666.183.517.864.48.979.253.862.288c.058.02.54.29.54.29l-.48.425.074.422-.434.746.09.178.21-.27.46-.615.29-.02.21.56-.055.427-.087.26-.486.229-.216.163s-.19.282-.322.394c-.134.115-.464.267-.464.267l-.707-.023-.167.212.258.847.173.537-.266.212-.556-.049-.725-.46.038-.604.355-.781-.005-.158-.512-.056-.829-.18-.327-.263-.05-.288.996.143.408-.143.132-.353.778.06.631-.05.337-.295-.073-.545-.568-.438-.877.168-.337-.247.202-.214.518.02.34-.01.012-.277-.373-.183h-.413l-.39.081-.515-.035-.37-.212-.59-.473-.44-.105-.4.22-.22.554-.223.532-.462.201-.497.061-.21.237.261.25.537.231s.672.038.748.038c.076 0 .558.135.558.135l.21.308-.119.31-.296.263-.14.127-.448-.122-.315.145.16.405-.003.232-.152.34-.137.294-.864-.156-1.879.117-1.204.214-.806-.074-.702-.305-.649-.425-.91-.046-.375-.135-.426-.369-.461-.081-.343-.163-.162-.515v-.537l-.826-.043-1.202.244-.484.224-.799.186-.74.5-.076.353.347.193.441-.058.249-.094.289-.252h.527l.434-.077.758-.354.489-.185.038.127-.238.425-1.002.456-1.075.292-.278.288.185.728s.507.843.547.904c.038.056.12.422.12.422l-.307.122s-.147-.056-.196.097c-.048.15-.126.303-.126.303l-.672-.15-.053-.349.301-.293-.16-.47-.453-.405-.472-.102v-.333l-.344.002-.295-.015-.932-.517-.457.117-.8.22-1.988.238-2.056.028-1.349-.34.137-.49.543-.343.783-.173.2-.061-.284-.543-.613-.519-.766-.338-.991-.15-.236.241-1.364-.216-1.26-.339-.712-.3-.885-.107-1.156-.328-1.168-.68-1.05-.198-1.288.262-.24.252-.315.374-1.173.173-.223-.14.278-.695-.134-.25-.144-.692-.15-.066-.347.272-.477.818-.484.598-.441.155-.548-.333-.905-1.62-.497-.638-.575-.319-.378-.025-.053.15.23.423.16.394-.263.087-.317.11-.038.16-.284.57-.451.305-.21-.043-.128-.232-.489-.04-.514.333-.434.448-.461.278-.302.007-.167-.188-.76.165-.918.527-.33.402-.06.296-.52.264-.497-.053v-.196l1.318-.97 1.488-.86.603-.153 1.171-.468.482-.423-.147-.153-.573.023-.854.041-.913.4-.857.397-.872.224-.377.175-.044.415-.425-.038h-.272l-.306.211-.249-.13.122-.312-.588-.222-.124.064-.19.315-.67.145-.98.382.062.453.401.227.289.232-.175.29-.578-.153-.984-.354-.836-.04-1.083-.367-1.28-.764-.197-.25-1.336-.15-1.456-.111-1.569-.586-1.062-.242-1.252.179-1.22.005-1.204-.377-1.08.015-.737-.046-2.188-.796-1.805-.008-1.32.272-.409-.198-.218-.158-.482-.087-.124-.593-.552-.196-1.126.133-.778.091-.317-.163v-.57l-.449.115-.304.275-.616.308-.388-.138v-.293l.517-.28-.08-.147-.787-.298-.385-.036-.651.41-1.004.733-1.509.115-1.115.186-.089.188.29.346-.003.346-.287.08-.479-.446-.302.351-.44.178-1.007.094-.322-.028-.487.265-.743.7-.291.3-.091.528-.206.547-.54.545-1.315.389-1.36.046-.473.038-.081.458-.137.479.182.244 1.068.418s.785.229.844.25c.058.02.917 1.045.917 1.045l.591 1.034.276.155 1-.094.902-.005.25.043.153.81.289.19.996.118.117.249-.307.201-.58.023-.66.209-.796.468-.464-.267-1.181.015-.449.033-.073-.237.132-.814-.46-.115-1.066.339-.677.445-.04.334-.211.137-.378-.122-.375.026-.908.448-.996.633.281.334 1.126.359.575.096-.164.247-.185.347.37.196.162.407.798.44 1.324.059 1.075-.153.71.25.402.04.52-.542.9-.578.654.02.284.15.175.314-.48.323-.126.133.373.608.144.657-.443.659-.657.17-.51-.076-.283-.053-.333.552-.357.512-.67-.013-.347-.227-.448-.2-.543.127-.162.465-.015.828-.38.112-.51.163-.223.221-.254.608-.306.258-.563.068.35.555.487.553.286.068.403.156.145.374-.251.476-.102.285.152.104.614.166.613.931.378.428.41.145.5-.204.608-.17.312-.069.23-.542.315.293.33.595.078.26-.088.384-.157.382.04.609.003.305.593.201.692-.175.25-.309.498-.27.692.194.595.463.52.44.145-.315.101-.55.327-.27.2.387.338.153.983-.24.398-.124.056.183-.426.548-.289.791-.003.537-.027.622-.48.384-.783.919-.253.147-.58.181-.794.57-1.004 1.031-1.552-.084-.367.148-.315.527-.575.618-.183.275.038.13.781-.244.766-.593.137-.352.322.324.446.137.616-.483.307-.168.638.053.434-.17.715-.293.59-.15.183-.624.913-.726.958-.422.616-.196.21-.616.958-.385.647-.595.456-.265.723-.18.055-.655.198-.224.436-.163.34-.578-.474-.231-.674-.206.136-.275.424-.408.5-.239.46-.008.421-.501-.022-.27.177-.387.596-.402.517-.832.423-.173.497-.385.558-.366.327.155s.119.234.32.204c.197-.031.466.007.466.007l.02.428-.459.053-.542-.16s-.325.066-.386.1c-.06.03-.626.57-.626.57l-.132.58-.32.562-.133.548.362.19.147.255-.829.522.459.226.5-.056.71-.292 1.363-.98 1.268-.349.854.183-.107-.453.135-.209-.345-.313-.345-.555.094-.369.454-.17.218-.37.654.35.479-.021.497.535.347-.016.472.039.131.28-.704.152-.261.222.08.275.705-.352.46-.076.423.308.134.137.408-.371.264-.15.02.41s.461.302.517.323c.059.02 1.536.193 1.536.193l1.765-.079.456-.063.563.509.583.267.664-.018.634-.54.279.041.192.308-.448.497-.046.198.385.191 1.478.575.54.58 1.017.734.593.288.175-.25-.038-.54.172-.058.535.308.271.058.363.275.269.207.154-.27s-.114-.405-.134-.464c-.02-.056-.23-.75-.23-.75l-.018-.35.44.253.15.397.155.4-.028 1.153s-.107.315-.203.346c-.096.033-.492-.036-.492-.036l-.273-.237-.066-.249-.274-.03-.53.27v.33l.474.71.55.339.266.54.135.353.309.321.294.428s.185-.255.185-.331c0-.079-.172-.812-.172-.812s-.249-.693-.269-.769c-.018-.079-.033-.562.152-.463l.368.193-.056.601.048.227.353-.077.537-.54-.117-.692-.025-.364.449.036.26.674.09.443-.28.377-.25.407-.642.196-.08.726.222.626.373-.616.269.25.555-.403.15.135.522.662.57.204.084-.214-.231-.267-.634-.273-.076-.364.249-.308.44.038.563.922.082.547-.411.339-.347.26-.426-.255-.444-.349-.266.094.167.555.157.339-.035.47-.112.352.178.445.263.115s.094-.153.094-.232c0-.076.071-.313.071-.313l.16-.089.5.232.058.117.268-.349.018-.372.23-.15.43.38.128.122.15-.204.325-.237.185.364-.071.56-.013.133.403-.133.152.23.266.422.282.24-.04.233-.467.143.152.349.14.606.207.437.652-.137.555-.25.25.212-.159.62-.053.314.25.262.348-.142.345-.072.715.736.436.423-.35.152-.233.117-.018.504.37.245s.109.364.109.483c0 .12.127.296.127.296l.628.32.624.023.72.204.36.542.69.204.46-.206.232.738.119.346.887-.015.502.216.487.127.408.128.132.649.365.634.208.4-.013.526.089.901-.244.772-.535-.08.15-.503.147-.474-.32-.33-.24-.311.137-.881-.611-.188-.203-.148-1.308-.512-.429-.634-.92-1.097-.53-.137-1.006-.115-.85-.488-.562-.143-.444.16.304.436.251.493.447.082.56.425.33.265.54.377.717.229.291.69.66.285.23.333.345.4.378 1.32.446.726.162.537.086.28.626.517-.238.087-.39.043-.069 1.14-.076.741-.063 1.49-.104 1.14-.418 1.361.215.647.322.794.076.672-.182 1.077.065.664.193.428.203 1.179.2.516.558.525.416.6.605.507.142.692.429.329.24.277-.068.728.467.667 1.107 1.056.178.604.06.3.84.189 1.052.694.613.102.386-.043.854.761.502 1.163.418.853s1.21 2.093 1.235 2.161c.025.069.258.937.258.937l.738.766.867.532.555.733.076.99-1.031.09.433.572.613.448.56.186.574.08.831.786.53.817s.104.42-.028.608c-.13.186-.162.374-.162.374l.816.677 1.045.708.861 1.013.178.408.383.056.248-.459-.248-.62-.04-.416-.191-.33-.897-.13-.317-1.154-.474-.565-.358-1.275-.641-1.013-.895-1.156-.515-.796-.415-.403.144-.692-.573-.216-.74-.336-.461-.54-.155-1.308-.281-1.182.281-.18.48.491.493-.107.411.384.178.156.681.018-.106.547.114.629.626 1.3-.175.632.132.521h.264l.208-.175.405.175.512.573.436.329.652.42.193.582.438.283.304.13.373.43.393.11.091.593-.109.58 1.14.764.379.381.603.683 2.302 2.55.748 1.334.142.418-.125.712.079.438-.413.26.598 1.362.433.252.609.18 1.257 1.085.586.28 1.021.206 2.472 1.25 1.138.24 2.322 1.22 1.235.347 1.377-.491 1.054-.178 1.577.639 1.42 1.252 1.652 1.28 1.303.003.801.4 1.709.463.418-.173h.386l.116.488.033.336.969.945.773.736.443.524-.098.512-.168.407.512.715.67.028.23-.102.241.326.588.219.416.359.091.323.304.583.756.102 1.255.415.684.58.67.392.468.181.535-.44-.37-.718.12-.24.567-.394.2-.377.948-.257.284.173 1.103-.33zM100.5 147.579L99.882 148.554 100.191 149.196 101.022 149.421 101.118 148.5zM139.618 223.382L139.72 222.524 140.497 221.882 141.382 221.618 141.382 222.317 140.5 223.202zM141.244 224.129L141.599 223.429 142.475 222.871 143.756 222.976 143.423 223.501 142.499 223.994zM170 226.582L171.303 227.443 172.24 228.418 173 228.04 172.305 227.095 171.501 226.777zM138.899 134.298L138.938 135.018 140.101 134.87 140.024 133.982zM131.244 124.609L131.931 123.995 133.446 124.213 133.756 124.609 133.123 125.005 131.719 125.005z"/>
            <path fill="#616161" d="M117 124.21L117.968 124.742 119.343 124.996 120 124.754 119.268 124.21 118.282 124.004zM122 124.295L122.811 123.997 124.569 123.822 123.709 122.611 123.693 122 124.569 122 125.779 122.372 126.98 122.385 128.539 122.762 129.796 123.484 130 123.882 129.275 124.436 128.283 124.298 127.256 124.412 125.619 125 124.752 124.641 123.693 124.704 123.02 124.873zM109 119.595L110.709 118.33 112.359 118 114.061 118.24 116.768 119.272 118.935 120.259 120.084 120.521 121.281 121.051 122 121.781 120.447 122 118.87 122 117.892 121.887 117.736 121.477 117.273 120.926 116.377 120.596 115.501 119.861 113.767 119.527 112.762 119.359 112.384 118.956 111.505 118.504 110.426 119.166 109.632 119.609 109.159 119.691zM117.177 114.327L116.931 115.029 117.177 115.632 117.454 116.061 118.069 116.673 118.069 115.785 117.648 115.5 117.499 114.327zM55 32.205L56.496 30.18 56.427 29.831 57.04 28.805 57.413 28.284 57.379 27.861 56.748 27.288 56.207 26.572 57.35 26.572 59.503 26.128 61.006 26 61.692 26.403 62.476 26.685 63.267 26.819 63.966 26.749 64.158 27.186 65.338 26.757 66.571 26.985 68.104 27.827 69 28.497 68.635 28.951 66.122 30.037 64.634 30.53 64.158 30.784 63.848 31.63 63.141 31.938 62.481 32.441 62.315 33.083 62 33.843 61.006 34.071 60.381 34.217 60.005 34.392 59.285 34.392 58.806 35 58.167 34.392 57.416 32.962 56.43 32.824 55.489 32.657z"/>
            <path fill="#616161" d="M64.701 31.518L66.64 30.265 69.898 29.069 70.674 29.704 70.894 30.293 70.734 30.638 69.869 31.002 70.175 31.518 71.199 31.278 71.326 30.638 71.621 30.149 72.527 30.02 73.622 30.293 74.186 31.039 74.186 31.663 74.921 31.249 76 31.663 76.116 31.278 76 30.638 75.12 30.146 75.63 30.025 76.846 30.504 77.581 31.102 78.024 32.339 78.575 33.424 79.481 33.053 78.505 30.504 78.515 29.432 78.911 29.227 79.481 29.448 79.921 29.432 81.737 30.146 81.328 29.654 80.097 28.719 80.837 28.205 81.836 28 83.075 28.382 83.287 28.916 82.806 29.683 82.245 30.536 82.34 31.968 83.024 33.066 83.287 33.424 83.106 34.349 83.551 34.973 85.122 35.768 86.68 36.563 87.762 37.25 88 37.83 87.814 38.138 87.464 38.13 86.126 37.89 85.203 38.433 84.838 38.785 85.14 39.125 85.795 39.125 86.075 38.701 86.867 39.125 87.035 39.554 86.711 40.034 85.249 40.418 83.634 40.418 83.075 40.279 82.555 39.976 80.857 39.378 80.443 38.804 79.677 39.573 78.976 40.065 77.931 40.155 76.8 40.418 74.854 41 73.027 41 71.35 40.515 71.083 39.736 70.998 39.244 69.313 39.346 68.037 39.08 66.544 38.346 66.223 37.83 66.805 37.329 69.548 37.05 71.94 37.087 73.482 36.7 72.527 36.052 70.136 35.96 68.974 36.044 67.201 36.113 65.416 35.639 65.11 35.21 65.553 34.775 67.08 34.528 68.565 33.84 68.063 33.738 66.702 34.004 65.462 34.256 64.934 33.601 64.225 33.372 64 32.942 64.766 32.023zM88.135 30.516L86.522 29.738 86 30.127 86.296 30.916 87.477 31.602 88.598 32.216 90.447 34 90.975 33.885 91.633 33.266 92.029 33.139 93.028 32.882 93.612 31.869 94 30.02 94 29.693 93.386 29.406 93.214 29.85 93.346 30.359 93.147 30.816 92.7 30.002 91.469 29.738 91.492 29.406 92.324 28.979 93.103 28.383 93.085 27.983 92.434 27.636 92.203 27.197 91.531 27 91.002 27.112 90.569 27.591 90.92 27.846 90.447 28.073 89.841 27.819 89.167 27.649 88.096 27.846 87.581 28.288 87.646 28.834 88.404 29.004 89.167 29.069 89.421 29.266 89.053 29.962 88.653 30.386zM60.436 22.763L60 21.991 60.685 21.254 61.915 21.021 62.59 20.497 62.995 20.064 65.009 18.631 65.619 18.542 66.685 18.857 67.256 18.72 67.334 18.297 67.729 18 68.018 18.184 69 18.778 68.166 19.052 68.236 19.493 68.305 20.064 68.236 20.505 67.256 21.039 66.685 21.665 66.111 21.336 65.993 20.195 65.45 20.064 65.127 20.871 64.823 21.935 64.637 22.188 64.201 21.991 63.762 22.188 63.164 23 62.708 22.703 62.291 21.93 61.888 22.482 61.309 22.585 60.897 22.395zM64.312 24.282L64.966 23.453 66.688 22.718 66.349 23.453 65.5 24.066zM69.483 17.236L70.509 17.032 71.37 17.236 71.517 17.644 71.226 17.968 70.5 17.968zM72 16.067L72.272 15.497 73.797 15.068 74.847 14.666 76.077 14.666 76.548 14.942 77 15.659 76.503 16.334 75.647 16.334 74.936 16.001 74.237 16.064 73.468 16.202 73.108 15.872 72.572 16.211z"/>
            <path fill="#616161" d="M72.252 16.888L72.959 16.543 74.932 16.21 75.6 16.21 76 16.543 75.65 16.822 75.034 17.098 75.189 17.434 74.752 18.403 73.543 18.79 72.632 18.565 72.17 18.172 72 17.434zM81.318 17.646L81.84 17.38 83.007 18.174 83.682 19.149 83.625 19.48 82.935 19.62 81.84 18.87zM82.76 24.179L83.103 23.816 83.811 23.996 84.24 24.5 84.186 24.923 83.481 25.184 82.76 24.8zM70.214 21.583L69.369 22.107 68.432 22.472 68.32 22.773 68.756 23.1 69.778 23.231 69.479 23.473 68.32 23.433 67.523 23.993 67.959 24.136 68.858 23.993 69.479 23.993 68.634 24.277 67.523 24.494 67 24.828 67.571 25.016 68.637 25.255 69.479 25.484 70.092 25.201 71.297 24.277 71.397 24.722 71.397 25.049 72.057 25.103 73.413 24.91 74.05 24.882 74.504 25.201 73.617 25.484 71.427 25.914 70.954 26.426 71.519 26.847 72.767 27 74.905 26.426 76.081 25.867 76.853 25.201 77.822 25.636 78.699 25.354 79.711 25.352 81.091 25.359 81.796 24.813 82 23.577 81.542 22.914 80.996 22.86 80.498 23.231 80.132 23.393 79.556 23.231 78.667 22.277 78.34 21.583 77.765 21 76.853 21.386 76.051 22.138 76.412 22.328 76.91 22.472 76.985 22.773 76.524 23.125 76.853 23.433 77.371 23.793 77.371 24.277 76.412 24.155 75.363 23.993 74.554 23.553 73.784 22.86 72.468 22.333 71.567 22.277 70.946 22.472 70.697 21.778zM82.453 14.518L82 13.142l.936-.142 1.588.072 1.078.563.22.403.613-.295.656.399.672.473.546.065.924.451v.746l.678.656s.28-.007-.154.321c-.431.328-1.105 0-1.105 0l-1.22-.275-.49-.328-1.411-.432-.978.058-1.416.2-.637-.533.777-.145 1.217-.184-.257-.574-.635-.292-1.149.169zM88.481 11.065L89.894 12.097 90.519 11.812 89.999 11.092 89.499 10.903zM94 24.836L94.859 23.612 96.366 23.078 97.493 23.957 98 24.995 97.544 25.922 96.217 25.754zM100.308 18.462L101.499 17.671 102.263 17.832 102.692 18.378 102.132 18.858 101.499 19.329zM94 18.755L94.605 18.212 96.293 17.885 98 17.942 97.461 18.461 95.964 19.115 95.048 19.109zM92 15L92 15.732 92.606 17.196 93.02 17.729 93.518 18 96 17.376 95.591 16.873 95.759 16.102 95.163 15.862 94.459 15.939 93.575 15.517 92.641 15zM110.212 54.336L110.212 53.462 110.898 53.01 112.299 52.52 112.788 52.641 112.395 53.505 111.712 54.132 110.844 54.48zM115.539 53.653L114.861 54.004 114.861 54.801 115.335 55.347 115.908 54.801 116.139 53.998zM84.423 20.466l-.807-.274-.616.274.11.736.947 1.17 1.428.81h1.523l1.195-.386.343.326-.308 1.058.025.523.849.297 2.41-.406L92 23.8l-.113-1.296s-.16-1.065-.298-1.237c-.135-.17-1.175-.681-1.175-.681l-.43.202-1.27-.431-1.15-.357v.434l.87 1.112.17.364-1.04-.391-.604-.37-.731-.334.253.88.158.804-.506.002-.742-.805-.97-1.23z"/>
            <path fill="#616161" d="M93 20.381L94.79 20l.788.079 1.224.468 1.377.584.816-.024 1.69.024 1.729 1.05-.798.158-.247.847.645.242 1.007.07.52.64 1.592.01 1.453-.01 1.18-.232s1.058-.252 1.21-.263c.148-.01 4.304.213 4.304.213l1.72.584-.317 1.387-.824.755-1.329.108h-1.17l-1.272-.5-.562.5-1.93.31-3-.179-1.27-.655-.912.416-.798.418-.69-.358-1.158-.52-.788-.295-.257-.868.045-1.59-1.71-1.37-.594.153-2.354-.708-1.095-.692-.015-.37zM108.795 47L107.472 48.247 107.261 49.045 107.048 49.522 107.118 50.136 107.048 50.772 106 51.965 106.437 52.181 107.649 51.903 108.356 53 109.248 52.774 110.59 51.72 111.422 51.281 112.296 51.658 113.687 52.132 115 51.72 114.402 51.128 113.177 50.198 112.712 49.576 111.263 48.886 109.425 48.016zM119 43.407L119 42.039 119.661 41.221 120.884 41.008 122 42.211 121.531 43.542 120.5 43.992 119.608 43.992zM114 28.34L114.921 28 116.166 28.46 117.074 28.46 118.648 28.996 120 30.189 117.875 30.513 116.824 30.741 116.166 31 115.059 31 114.824 30.064 114.531 29.328 114 28.866z"/>
            <path fill="#616161" d="M108.423 28.259l-3.744.398-1.315.865L102 31.417l.17 2.583.777.26 1.95.255.626.386-.606.205-1.517-.164-.719.32.57.68 1.129.542.801.04.96-.09.35.377.504.297 2.053.104 2.842.515.834-.185.473-.386 2.002.571.897-.17-.17-.801-.124-.617 1.335.4.605.56.684.628.957.637.975.685-1.251 1.091h.696l1.294-.573.608.573.585.69h.729l1.204 1.261.286 1.007-.286 1.23.992.17 1.11-.34.704-.045 1.234.386v1.03l-1.048.53-.776-.007-.307-.6-1.113-.62-1.82.012-.818 1.215.48.967-.927.738-1.335.064-1.696-.32-.761.492-.767.49.028 1.119.797.296 2.045-.18 1.055.115.196-.346 1.933-.114.588.525.89.795.434.253.304 1.41.995.3h1.216l.857.678 1.575.984 1.425.675h.658l.224-.675-1.985-2.078-1.271-.802.336-.23 1.596.573 1.324.713 1.158.104.985-.586.194-.655-.784-.428-.163-.919-.29-.667-.947-.601-.985-.168-1.015-.667-.234-.764.131-.352.169-.853.173-.584.52-.147.779.546.874.36.777.929 1.505 1.235.603-.799 1.31-.746.326-.74 1.319-.922v-.492l-.437-.31-1.038-.116-.84-.036-.16-.502s.231-.028-.08-.439c-.312-.41-1.284-.997-1.284-.997l-.99-.208-.935.046-.837-.71-.912-.216-.94-.51-.354-.85.505-.315 1.256-.086-.952-.49-.528-.256.304-.376.478-.6-.342-.41-.774-.497-.518.678-.394-.076.397-.602.226-.357-.69-.566-1.622.038-.683-.112.095-.621-.972.043-.676.302-.731.005-.292-.497 1.146-.092.498-.517.005-.333-.749-.396-.9.16-.284.292-.339.307-.394-.38-.515-.581-.229-.548-1.447-.412-.292-.959-1.03-.449-1.55-.19-1.315.525-.108.564-.17.327-.558-.2-.068-.414-1.073.03-.689.546-.341.111-.237-.657.294-1.522-.467-.726-.442-.822-.731-.606-1.088.213-.681.393-1.478.635-.904.187-.732.901.57.924.214.334-.025.549-.492.42.266.386.646.117.304.383-.038.614s-.608-.076-.723-.117c-.113-.035-1.026-.459-1.026-.459l-.648-.883.038-1.037-.226-.764.38-1.043.949-.807.822-.687zM135 77.375c3.027.636 4 1.428 4 1.428l-.265.822-3.735-2.25zM146.389 74L144.581 75.295 143.876 76.495 143.689 77.612 143.689 78.365 143.167 78.276 142.492 78.365 142.468 79.066 142.468 79.416 142 80.104 142.1 80.682 142.751 80.682 143.647 80.64 144.417 80.682 145.124 80.643 146.001 80.209 146.389 80.41 146.915 80.64 146.62 81.587 147.354 81.341 147.687 81.116 148.394 81.127 148.604 81.817 149.354 82 150 81.668 150 81.121 149.449 80.483 149.171 80.724 149.15 80.143 149.376 79.772 149.539 79.437 148.862 79.458 148.579 79.416 148.589 78.914 148.935 78.158 148.618 77.714 147.943 77.878 147.585 78.15 147.224 77.999 146.842 77.643 146.389 77.178 146.289 76.856 146.001 76.6 145.334 76.892 144.927 76.861 145.443 75.948 145.738 75.297 146.001 74.826 146.328 74.45zM96.245 7.473L96.932 7.902 95.544 8.066 95.099 8.157 95.487 8.591 96.014 8.992 95.34 9.176 94.373 9.236 93.82 9.434 93.82 10.328 94.608 10.708 95.099 10.851 95.099 11.332 93.905 11.353 93.44 11.353 93 11.353 93.44 12.06 93.838 12.367 94.114 12.92 94.724 13.472 95.877 13.56 96.932 13.44 97.86 13.308 98.584 13.591 98.181 14.01 97.018 14.309 96.245 14.707 97.343 15.391 98.116 16.119 99.611 16.909 101.216 17 101.744 16.696 102.716 16.47 103.085 16.943 103.726 16.47 104.096 15.614 104.432 15.471 104.763 15.474 105.107 14.954 105.777 14.353 107.005 14.028 108 13.591 107.581 13.053 106.713 13.001 105.743 13.084 105.306 12.611 105.428 12.12 104.905 11.332 104.841 10.885 104.73 10.404 104.163 10.294 103.905 10.648 103.708 10.986 102.977 10.778 102.677 10.06 101.201 9.228 99.037 8.165 98.142 7.473 97.343 7.094 96.557 7z"/>
            <path fill="#616161" d="M100 5.944l.829-.492.949-.245.851-.062.567.2.495-.2.527-.619.761-.221.568.095.66.417.357.086.57-.258-.076-.467.076-.291.959-.15.216-.317.404-.311.64.077 1.17.466.65.294.578-.136.304-.565 1.05-.26 1.157.307V2.16h1.713l-.34-.371.345-.212 1.245.083 1.399.402.685-.485.643-.082 2.534-.124.941.462.6.216.07-.379.797-.67h.957l.86.461 1.874-.373 1.406.299 1.868.09 1.213.134-1.142.97.63-.15 1.883-.54 1.015.132 1.476.408v.703l1.469.338H140l-.849.75-2.27 1.088-1.561.433-2.087-.008-1.582.66h1.215l2.087-.095.505.327-.726.552-1.374.389-2.162.923-1.828 1.077-1.69.938-.514.142-.47.722-.607.446h-.93l-.989-.232-.582.056-.156.851-.891.379-1.68.018h-1.67l-.43.655.935.07 1.519.015 1.12.338.173.415-.648 1.394-.901.887-1.005.4-.914-.045-1.471.222.304.946-1.683.562-.853.057-1.349-.165-.851.165-.1.443 1.227.211h1.379l.96.462.624-.05.91.05.158.832-.432.302s-.598-.497-1.155 0c-.56.5-1.675.946-1.675.946l-.93-.273-1.292-.611-2.886.005-1.21.575-1.429-.436-2.305-.113-1.567-.157-.308-.743 1.107-.541 2.172-.459-.239-.5-1.14-.56.136-.592h2.275l.723.925.575.508.844.03.284-.363-.565-.662-.912-1.085.889-.985-.605.168-1.678.407-.919.124-.47-.588.905-1.05 1.499-.412 1.722.18 1.213.372 1.324.407.097-.317-1.541-.745-.96-.827-.687-1.387-1.698-.185-.603-.526-.035-1.268 1.067-.21 2.027.158 1.522.675.74.562 1.61.444-1.15-1.024L112 9.834l1.208-.04 2.28-.414 1.218-.781v-.99l-.407-.26-.096.443-1.464.892-1.491.376-1.135.072-.984-.327-.38.505-1.039.284-1.464-.119-1.132-.459.21-1.147-.607.506-1.364.425-1.873-.541-.376-.35-.816-.465.816-.817-1.005-.067.076-.516.283-.515-1.024.34-.653.24-.781-.165zM149.031 3.82l-3.238.543-1.242.08-1.17.298.156.533.374.414-.53.145-1.053-.455-1.227-.05-1.3.596.417.6.13.85-.168.506h-1.252l-1.227-.386-2.486.919-3.35 2.26.653.315h1.24l1.272.183.238.495-.438 1.003-.868.876-1.047.267h-1.533l-1.272.24-.797.6-2.135.475-1.874.615-.304.716.334.485.723.246 1.4.229.84.632 1.626.277 1.229-.219 1.49-.208.658.427.129.464-1.31.204-.967-.105-1.194.13-.926.239-1.252.063-.989.313.405.342 1.275.183.943.173-.255.947 1.525.843 1.24.444.784.09.055-.648.61-.066.703.256.279.071.62-.261.819-.117.625-.091.597-.305 4.5 1.204.885.375 1.088.587.167.868.387.47 1.325.762.886.785.276.795.103.86.709.76.131.896.64.52v.577l-.673.965.127.582-.109.99.62.503.953-.221.992-.622.311.843 1.11.906 1.101.447.858.805v.274h-.797l-1.44-.655-2.173.137.67.518 1.979.965 1.323.18.592.585.053.7-.223.544-.045 1.257-1.295.079-1.212.36-.28.96-.952 1.509.28.66.98.452-.185.432-.807.718.458.833 1.085.891.476.59.002 1.782.56.272.308.985.463.503.387.576.686.767.852 1.834.8.731.647.963 1.21.533h.44l.819.38.69.064.835.59 2.249.878.956-.995.309-.844v-1.097l.541-.464-.316-1.653-.422-.188.42-.374 1.112-.162.53-.808.533-.998.217-.426-.361-.848.68-.254v-.805l-.564-.325.066-.447.923.312.306-.114-.083-.422.31-.584 1.192-.228.6-.3.187-.767.276-.44.308.052V46.943l.818-.29 1.517-.187 1.935-.892 1.136-1.26.757-1.147.984-.584v-.871l.85-.11.92.298.281-.343 1.058-.15.73-.282.598-.084 3.53-.705.78-.353.949-.643 1.99-.965 1.794-1.19-1.614.423-1.533-.386-1.454-.424-1.19.503-.078-.282.832-.879.453-.406-.116-1.168.574.064 1.149.896 1.27.93 1.052.116.938-.39-.086-1.004.086-.693-1.098-.973-1.717-1.211-.521-.528.748-.363 1.159.594.521.066.582-.66.119-.747-1.154-.401-.958.193-1.341.462-.918-.348.245-.637 1.085-.49-.126-.732 2.016.732.845.111 1.194-.162 1.128-.658-.946-.746-.918-.58.622-.32h1.242l1.348-.027.529-.871-1.1-.041-1.151-.231-.554-.602-.059-.51.752-.287 1.168.028.696-.567-.08-.993-.62-.848-1.84-.104-.726-.561-.437-.396-.944-.658.954.015.8.038.85-.416.849-.056 1.442.213.797.033.265-.406-.493-.782-.574-.19-.638.13h-1.302l-.195-.59.349-.383 1.406.002-.589-.556-1.508-.396-.842.574-.88.376-.306-.452 1.05-.747.252-1.712.494-.45 1.715-.845.096-.998.73-.566 1.39-.203.303-.411-.652-.546-.53-.077s-1.588.96-1.86.826c-.274-.137-.132-.62-.132-.62l1.095-.513 1.53-.11 2.229-.426v-.322l-.78-.219-1.585-.035-.98.013.712-.358 1.783-.14 1.556-.452 1.032-.219 1.01-.563 1.246-.323L204 6.537l-.946-.554-2.011-.536-1.467-.173-2.001.323-.534.44-.384 1-.86-.237-1.012-.205-.886.327-.339-.736-.392.043-1.298 1.115-1.763.884-1.631 1.104.528-.99s1.167-1.244 1.26-1.338c.096-.097.777-1.587.777-1.587l-.488-.536-.742-.104-1.044.297-.269.772-2.183.69-2.266.577.336-.409 1.915-.94.42-.337-.905-.234-2.641-.003-2.376.193-2.3.694-1.454.152.193-.49s1.568-.513 1.765-.559c.198-.043 4.518-.591 4.518-.591l2.07-.018 1.593-.114 1.622-.638 2.018-.244.817-.332-.655-.622-2.565-.35-.938-.519-1.564-.922-.544-.162h-2.276l-.802-.295-1.144-.35h-2.117L175.628 0l-2.641.063-1.498.359-.92-.018-.764.249.248.607-.362.47-.709-.247-.586-.543-.984-.051-1.248.431-2.296-.398-.777.338-3.875.3 1.297 1.188-.974.29h-1.113l-.202.398.625.37 2.22 1.268.96.807-.575.231-1.037-.571-1.601-.754-1.242-.297-.893-.59-1.657-.584-1.53.041-.046.409 1.186.734.423.657-.536.34-1.255-.26-1.004-.587-1.093-.666-.516-.101.076.652.058 1.044-.25.764-.88.58.06-.463.096-1.52-.782-1.12z"/>
            <path fill="#616161" d="M148 38.694L148.612 37.032 149.57 37.1 150.503 37.493 150.899 37.922 151.507 38.502 152 39.056 151.166 39.819 149.897 39.968 148.666 39.197zM188.666 46.191L188 47.101 188.333 47.441 189.274 47.423 190.237 47.214 190.882 47.423 190.627 48.089 190.557 48.496 188.432 48.898 189.605 48.898 190.354 48.935 190.824 49.444 191.215 49.907 191.215 50.367 190.096 50.975 190.466 51.141 191.784 50.916 192.772 51.141 194.598 52 195.813 51.834 196.492 51.36 197.441 50.999 198.138 50.795 199.053 50.281 200.385 49.912 200.98 49.219 202 48.21 201.316 47.08 200.739 46.852 200.354 45.567 199.451 45.626 198.177 45 198.013 46.25 197.235 45.889 196.962 46.36 196.707 45.91 195.94 46.028 195.256 45.79 194.372 46.413 193.844 46.132 193.235 46.558 193.059 47.182 192.195 47.586 191.73 47.096 191.844 46.494 191.014 45.584 189.823 45.123 189.454 45 190.021 45.889 189.529 45.849zM16.146 121.566L15.681 122.513 16.221 123.434 17.319 122.811zM11.047 119.54L11.953 119.847 11.953 119.153zM13.026 120.281L13.485 120.719 13.974 120.434zM15.303 121.107L15.046 121.893 15.78 121.893 15.954 121.107zM47.545 70L46.189 70.722 46.867 71.824 47.545 72.448 48.811 73 48.811 72.543 48.226 71.515 48.085 71.021zM18 64.009L18.847 63.671 19.872 62.37 20.769 62 21 62.623 20.18 63.048 20.615 63.812 20.137 64.327 19.103 65 18.487 65zM1.279 59.388L2.224 60.087 3.415 60.032 3.721 58.98 2.593 59.535 2.635 58.913z"/>
            <g transform="translate(0 69)">
                <mask id="prefix__f" fill="#fff">
                    <use xlink:href="#prefix__e"/>
                </mask>
                <path fill="#616161" d="M1.292 1.826L1.469 1.109 1.969 0.866 2.079 1.334 1.684 1.629z" mask="url(#prefix__f)"/>
            </g>
            <path fill="#616161" d="M4.349 70.008L4.631 69.484 5.429 69.094 6.386 68.992 6.651 69.484 6.2 69.501 5.571 69.603zM233.482 14.447L233.893 15.485 234.838 16.076 235.518 16.553 234.501 15.23zM234.35 13.558c-.117-.276-.234-.559-.35-.835.116-.155.233-.305.35-.458l.54-.261.513-.199.94.087 1.11-.173.535-.069.35.188-.125.14-.667.224-.588.137.453.264.481.203.205.351.24.17.133-.22-.008-.504.29-.373.222-.338.22-.163.456.282.274.704.443.696.978.78s-.207-.912-.238-.996c-.031-.081-.582-.96-.582-.96l-.202-.28.38-.322.321-.633.551.65.306-.152.709.102.5.33.01.135-.306.53-.044.387.448-.254.448-.254.409.47.155.523.567.036.812.256.192.3.334-.13.212-.089.427.094.036.143.867.437.15.843.471.097.471.305.096.241-.191.285 1.415.223.122.208-.267.46.267.135.593.018.559-.137.58.137.077.167-.502.323-.432.231-.42.414-.644.47-.471.17-.342-.088-.062-.35v-.423l-.233-.124-.434.239-1.263.22-.184-.238.313-.389.411-.615-.06-.46-.372-.096v-.21l-.468-.29-.432-.557.354-.297.352-.048.018-.326h-.365l-.66.209-.895.132-.686.607-.166.404.091.285-.21.215-.403.275.02.475-.036.318-.277.21-.706.404-.743 1.045-.243.66-.125.541-.375.168h-.393l-.412-.43-.693-.345.77-.31-.077-.325h-.43l-.649.147-.256-.145-.828-.487-.49-.547.283-.259.587.117.373.018.215-.315.804-.244.686.02.784-.19.057-.252-1.234.026-1.431.14-.88.09-.526-.119.034-.29.334-.271.882-.17.707-.079.409-.376s.51-.2.668-.241c.155-.036.465-.163.465-.163l.272-.485-.111-.447-.45.271s-.042-.045-.51.176c-.469.216-.7.127-.7.127l.068-.188.202-.521-.039-.34h-.414l-.14.393-.165.24-.435.096-.24.47-.293.467-.71.175-.698-.06-.64-.374-.69-.5-.443-.524.044-.384.466-.546.515-.452-.272-.15-.43.097-.44.261-.338-.048-.169-.196zM245.642 13.052L247.474 13.521 248.066 13.549 248.521 13.549 248.824 13.303 249.279 13.699 250.166 14 250.468 14 251.126 13.749 251.608 13.615 252.723 13.348 253.165 13.052 253.358 12.706 253.853 12.402 254.563 12.004 254.888 11.726 255 11.362 254.708 11.087 254.14 10.99 253.195 10.985 252.483 10.891 251.866 10.642 250.983 10.492 250.588 10.681 250.321 11.142 249.884 11.035 249.734 10.364 249.434 10.136 249.146 10.178 248.766 10.487 248.934 11.333 248.691 11.58 248.264 11.325 247.991 11.082 247.904 10.891 247.349 10.914 246.934 10.959 246.707 10.563 246.344 10.288 245.642 10.016 245.472 10 245.549 10.351 245.557 10.595 245.312 10.634 244.79 10.385 244.625 10.325 244.625 10.689 244.652 11.066 244.455 11.003 243.91 10.437 243.692 10.356 243.415 10.521 243.3 10.77 243 10.925 243.26 11.084 243.642 11.333 243.885 11.598 243.597 11.81 243.662 11.954 243.997 12.117 244.472 12.234 245.512 12.313 246.534 12.174 247.707 12.075 248.299 12.103 248.314 12.313 247.704 12.407 246.522 12.669 245.994 12.813z"/>
        </g>
        <circle cx="90" cy="73" r="45" fill="#D8D8D8" fill-opacity=".5"/>
        <circle cx="109" cy="120" r="26" fill="#C6C6C6" fill-opacity=".5"/>
        <circle cx="310" cy="86" r="26" fill="#C6C6C6" fill-opacity=".5"/>
        <ellipse cx="328" cy="131.5" fill="#E7ACAC" fill-opacity=".5" rx="38" ry="37.5"/>
        <ellipse cx="403" cy="70.5" fill="#7E1818" fill-opacity=".5" rx="38" ry="37.5"/>
        <ellipse cx="214" cy="80.5" fill="#7E1818" fill-opacity=".5" rx="38" ry="37.5"/>
        <circle cx="284" cy="48" r="22" fill="#7E1818" fill-opacity=".5"/>
    </g>
</svg>
